%TF.GenerationSoftware,KiCad,Pcbnew,8.0.7*%
%TF.CreationDate,2025-07-05T17:28:37-07:00*%
%TF.ProjectId,hackpad_v2,6861636b-7061-4645-9f76-322e6b696361,rev?*%
%TF.SameCoordinates,Original*%
%TF.FileFunction,Copper,L1,Top*%
%TF.FilePolarity,Positive*%
%FSLAX46Y46*%
G04 Gerber Fmt 4.6, Leading zero omitted, Abs format (unit mm)*
G04 Created by KiCad (PCBNEW 8.0.7) date 2025-07-05 17:28:37*
%MOMM*%
%LPD*%
G01*
G04 APERTURE LIST*
%TA.AperFunction,ComponentPad*%
%ADD10R,2.200000X2.200000*%
%TD*%
%TA.AperFunction,ComponentPad*%
%ADD11O,2.200000X2.200000*%
%TD*%
%TA.AperFunction,ComponentPad*%
%ADD12O,1.700000X1.700000*%
%TD*%
%TA.AperFunction,ComponentPad*%
%ADD13R,1.700000X1.700000*%
%TD*%
%TA.AperFunction,ViaPad*%
%ADD14C,0.600000*%
%TD*%
%TA.AperFunction,Conductor*%
%ADD15C,0.200000*%
%TD*%
G04 APERTURE END LIST*
D10*
%TO.P,D45,1,K*%
%TO.N,ROW 2*%
X309340000Y-68700000D03*
D11*
%TO.P,D45,2,A*%
%TO.N,Net-(D45-A)*%
X309340000Y-58540000D03*
%TD*%
D10*
%TO.P,D30,1,K*%
%TO.N,ROW 1*%
X308650000Y-49810000D03*
D11*
%TO.P,D30,2,A*%
%TO.N,Net-(D30-A)*%
X308650000Y-39650000D03*
%TD*%
D10*
%TO.P,D21,1,K*%
%TO.N,ROW 1*%
X113430000Y-50420000D03*
D11*
%TO.P,D21,2,A*%
%TO.N,Net-(D21-A)*%
X113430000Y-40260000D03*
%TD*%
D10*
%TO.P,D20,1,K*%
%TO.N,ROW 1*%
X94480000Y-50340000D03*
D11*
%TO.P,D20,2,A*%
%TO.N,Net-(D20-A)*%
X94480000Y-40180000D03*
%TD*%
D10*
%TO.P,D37,1,K*%
%TO.N,ROW 2*%
X142060000Y-69420000D03*
D11*
%TO.P,D37,2,A*%
%TO.N,Net-(D37-A)*%
X142060000Y-59260000D03*
%TD*%
D10*
%TO.P,D8,1,K*%
%TO.N,ROW 0*%
X161030000Y-17040000D03*
D11*
%TO.P,D8,2,A*%
%TO.N,Net-(D8-A)*%
X161030000Y-6880000D03*
%TD*%
D10*
%TO.P,D12,1,K*%
%TO.N,ROW 0*%
X242100000Y-17040000D03*
D11*
%TO.P,D12,2,A*%
%TO.N,Net-(D12-A)*%
X242100000Y-6880000D03*
%TD*%
D10*
%TO.P,D18,1,K*%
%TO.N,ROW 1*%
X56351190Y-50120000D03*
D11*
%TO.P,D18,2,A*%
%TO.N,Net-(D18-A)*%
X56351190Y-39960000D03*
%TD*%
D10*
%TO.P,D80,1,K*%
%TO.N,ROW 5*%
X270530000Y-131380000D03*
D11*
%TO.P,D80,2,A*%
%TO.N,Net-(D80-A)*%
X270530000Y-121220000D03*
%TD*%
D10*
%TO.P,D72,1,K*%
%TO.N,ROW 4*%
X290233690Y-112320000D03*
D11*
%TO.P,D72,2,A*%
%TO.N,Net-(D72-A)*%
X290233690Y-102160000D03*
%TD*%
D10*
%TO.P,D5,1,K*%
%TO.N,ROW 0*%
X99190000Y-17000000D03*
D11*
%TO.P,D5,2,A*%
%TO.N,Net-(D5-A)*%
X99190000Y-6840000D03*
%TD*%
D10*
%TO.P,D40,1,K*%
%TO.N,ROW 2*%
X199141190Y-69340000D03*
D11*
%TO.P,D40,2,A*%
%TO.N,Net-(D40-A)*%
X199141190Y-59180000D03*
%TD*%
D10*
%TO.P,D75,1,K*%
%TO.N,ROW 5*%
X68310000Y-126580000D03*
D11*
%TO.P,D75,2,A*%
%TO.N,Net-(D75-A)*%
X68310000Y-116420000D03*
%TD*%
D10*
%TO.P,D47,1,K*%
%TO.N,ROW 3*%
X51440000Y-88530000D03*
D11*
%TO.P,D47,2,A*%
%TO.N,Net-(D47-A)*%
X51440000Y-78370000D03*
%TD*%
D10*
%TO.P,D55,1,K*%
%TO.N,ROW 3*%
X203830000Y-88480000D03*
D11*
%TO.P,D55,2,A*%
%TO.N,Net-(D55-A)*%
X203830000Y-78320000D03*
%TD*%
D10*
%TO.P,D35,1,K*%
%TO.N,ROW 2*%
X103881190Y-69300000D03*
D11*
%TO.P,D35,2,A*%
%TO.N,Net-(D35-A)*%
X103881190Y-59140000D03*
%TD*%
D10*
%TO.P,D52,1,K*%
%TO.N,ROW 3*%
X146780000Y-88560000D03*
D11*
%TO.P,D52,2,A*%
%TO.N,Net-(D52-A)*%
X146780000Y-78400000D03*
%TD*%
D10*
%TO.P,D2,1,K*%
%TO.N,ROW 0*%
X41980000Y-17070000D03*
D11*
%TO.P,D2,2,A*%
%TO.N,Net-(D2-A)*%
X41980000Y-6910000D03*
%TD*%
D10*
%TO.P,D28,1,K*%
%TO.N,ROW 1*%
X246731190Y-50420000D03*
D11*
%TO.P,D28,2,A*%
%TO.N,Net-(D28-A)*%
X246731190Y-40260000D03*
%TD*%
D10*
%TO.P,D77,1,K*%
%TO.N,ROW 5*%
X208670000Y-126580000D03*
D11*
%TO.P,D77,2,A*%
%TO.N,Net-(D77-A)*%
X208670000Y-116420000D03*
%TD*%
D10*
%TO.P,D29,1,K*%
%TO.N,ROW 1*%
X285560000Y-49380000D03*
D11*
%TO.P,D29,2,A*%
%TO.N,Net-(D29-A)*%
X285560000Y-39220000D03*
%TD*%
D10*
%TO.P,D54,1,K*%
%TO.N,ROW 3*%
X184770000Y-88540000D03*
D11*
%TO.P,D54,2,A*%
%TO.N,Net-(D54-A)*%
X184770000Y-78380000D03*
%TD*%
D10*
%TO.P,D65,1,K*%
%TO.N,ROW 4*%
X137210000Y-107590000D03*
D11*
%TO.P,D65,2,A*%
%TO.N,Net-(D65-A)*%
X137210000Y-97430000D03*
%TD*%
D10*
%TO.P,D46,1,K*%
%TO.N,ROW 3*%
X25301190Y-88030000D03*
D11*
%TO.P,D46,2,A*%
%TO.N,Net-(D46-A)*%
X25301190Y-77870000D03*
%TD*%
D10*
%TO.P,D78,1,K*%
%TO.N,ROW 5*%
X227680000Y-126550000D03*
D11*
%TO.P,D78,2,A*%
%TO.N,Net-(D78-A)*%
X227680000Y-116390000D03*
%TD*%
D10*
%TO.P,D71,1,K*%
%TO.N,ROW 4*%
X258670000Y-107530000D03*
D11*
%TO.P,D71,2,A*%
%TO.N,Net-(D71-A)*%
X258670000Y-97370000D03*
%TD*%
D10*
%TO.P,D36,1,K*%
%TO.N,ROW 2*%
X122920000Y-68960000D03*
D11*
%TO.P,D36,2,A*%
%TO.N,Net-(D36-A)*%
X122920000Y-58800000D03*
%TD*%
D10*
%TO.P,D22,1,K*%
%TO.N,ROW 1*%
X132531190Y-49840000D03*
D11*
%TO.P,D22,2,A*%
%TO.N,Net-(D22-A)*%
X132531190Y-39680000D03*
%TD*%
D10*
%TO.P,D15,1,K*%
%TO.N,ROW 0*%
X308740000Y-17030000D03*
D11*
%TO.P,D15,2,A*%
%TO.N,Net-(D15-A)*%
X308740000Y-6870000D03*
%TD*%
D10*
%TO.P,D11,1,K*%
%TO.N,ROW 0*%
X222990000Y-17030000D03*
D11*
%TO.P,D11,2,A*%
%TO.N,Net-(D11-A)*%
X222990000Y-6870000D03*
%TD*%
D10*
%TO.P,D41,1,K*%
%TO.N,ROW 2*%
X218161190Y-69430000D03*
D11*
%TO.P,D41,2,A*%
%TO.N,Net-(D41-A)*%
X218161190Y-59270000D03*
%TD*%
D10*
%TO.P,D38,1,K*%
%TO.N,ROW 2*%
X161110000Y-69440000D03*
D11*
%TO.P,D38,2,A*%
%TO.N,Net-(D38-A)*%
X161110000Y-59280000D03*
%TD*%
D10*
%TO.P,D19,1,K*%
%TO.N,ROW 1*%
X75381190Y-49770000D03*
D11*
%TO.P,D19,2,A*%
%TO.N,Net-(D19-A)*%
X75381190Y-39610000D03*
%TD*%
D10*
%TO.P,D69,1,K*%
%TO.N,ROW 4*%
X213360000Y-107570000D03*
D11*
%TO.P,D69,2,A*%
%TO.N,Net-(D69-A)*%
X213360000Y-97410000D03*
%TD*%
D10*
%TO.P,D6,1,K*%
%TO.N,ROW 0*%
X122980000Y-16990000D03*
D11*
%TO.P,D6,2,A*%
%TO.N,Net-(D6-A)*%
X122980000Y-6830000D03*
%TD*%
D10*
%TO.P,D63,1,K*%
%TO.N,ROW 4*%
X99110000Y-107540000D03*
D11*
%TO.P,D63,2,A*%
%TO.N,Net-(D63-A)*%
X99110000Y-97380000D03*
%TD*%
D10*
%TO.P,D73,1,K*%
%TO.N,ROW 5*%
X20670000Y-126640000D03*
D11*
%TO.P,D73,2,A*%
%TO.N,Net-(D73-A)*%
X20670000Y-116480000D03*
%TD*%
D10*
%TO.P,D76,1,K*%
%TO.N,ROW 5*%
X139830000Y-126580000D03*
D11*
%TO.P,D76,2,A*%
%TO.N,Net-(D76-A)*%
X139830000Y-116420000D03*
%TD*%
D10*
%TO.P,D17,1,K*%
%TO.N,ROW 1*%
X37290000Y-50450000D03*
D11*
%TO.P,D17,2,A*%
%TO.N,Net-(D17-A)*%
X37290000Y-40290000D03*
%TD*%
D10*
%TO.P,D79,1,K*%
%TO.N,ROW 5*%
X246830000Y-126620000D03*
D11*
%TO.P,D79,2,A*%
%TO.N,Net-(D79-A)*%
X246830000Y-116460000D03*
%TD*%
D10*
%TO.P,D10,1,K*%
%TO.N,ROW 0*%
X203970000Y-17030000D03*
D11*
%TO.P,D10,2,A*%
%TO.N,Net-(D10-A)*%
X203970000Y-6870000D03*
%TD*%
D10*
%TO.P,D32,1,K*%
%TO.N,ROW 2*%
X46760000Y-69400000D03*
D11*
%TO.P,D32,2,A*%
%TO.N,Net-(D32-A)*%
X46760000Y-59240000D03*
%TD*%
D10*
%TO.P,D16,1,K*%
%TO.N,ROW 1*%
X18250000Y-50300000D03*
D11*
%TO.P,D16,2,A*%
%TO.N,Net-(D16-A)*%
X18250000Y-40140000D03*
%TD*%
D10*
%TO.P,D24,1,K*%
%TO.N,ROW 1*%
X170640000Y-50390000D03*
D11*
%TO.P,D24,2,A*%
%TO.N,Net-(D24-A)*%
X170640000Y-40230000D03*
%TD*%
D10*
%TO.P,D48,1,K*%
%TO.N,ROW 3*%
X70600000Y-88500000D03*
D11*
%TO.P,D48,2,A*%
%TO.N,Net-(D48-A)*%
X70600000Y-78340000D03*
%TD*%
D10*
%TO.P,D26,1,K*%
%TO.N,ROW 1*%
X208750000Y-50360000D03*
D11*
%TO.P,D26,2,A*%
%TO.N,Net-(D26-A)*%
X208750000Y-40200000D03*
%TD*%
D10*
%TO.P,D59,1,K*%
%TO.N,ROW 3*%
X308640000Y-88490000D03*
D11*
%TO.P,D59,2,A*%
%TO.N,Net-(D59-A)*%
X308640000Y-78330000D03*
%TD*%
D10*
%TO.P,D9,1,K*%
%TO.N,ROW 0*%
X180200000Y-17000000D03*
D11*
%TO.P,D9,2,A*%
%TO.N,Net-(D9-A)*%
X180200000Y-6840000D03*
%TD*%
D10*
%TO.P,D81,1,K*%
%TO.N,ROW 5*%
X289620000Y-131340000D03*
D11*
%TO.P,D81,2,A*%
%TO.N,Net-(D81-A)*%
X289620000Y-121180000D03*
%TD*%
D10*
%TO.P,D7,1,K*%
%TO.N,ROW 0*%
X142040000Y-16950000D03*
D11*
%TO.P,D7,2,A*%
%TO.N,Net-(D7-A)*%
X142040000Y-6790000D03*
%TD*%
D10*
%TO.P,D33,1,K*%
%TO.N,ROW 2*%
X65820000Y-69430000D03*
D11*
%TO.P,D33,2,A*%
%TO.N,Net-(D33-A)*%
X65820000Y-59270000D03*
%TD*%
D10*
%TO.P,D43,1,K*%
%TO.N,ROW 2*%
X256360000Y-69390000D03*
D11*
%TO.P,D43,2,A*%
%TO.N,Net-(D43-A)*%
X256360000Y-59230000D03*
%TD*%
D10*
%TO.P,D3,1,K*%
%TO.N,ROW 0*%
X61050000Y-17070000D03*
D11*
%TO.P,D3,2,A*%
%TO.N,Net-(D3-A)*%
X61050000Y-6910000D03*
%TD*%
D10*
%TO.P,D57,1,K*%
%TO.N,ROW 3*%
X241911190Y-88520000D03*
D11*
%TO.P,D57,2,A*%
%TO.N,Net-(D57-A)*%
X241911190Y-78360000D03*
%TD*%
D10*
%TO.P,D67,1,K*%
%TO.N,ROW 4*%
X175260000Y-107510000D03*
D11*
%TO.P,D67,2,A*%
%TO.N,Net-(D67-A)*%
X175260000Y-97350000D03*
%TD*%
D10*
%TO.P,D27,1,K*%
%TO.N,ROW 1*%
X227820000Y-50360000D03*
D11*
%TO.P,D27,2,A*%
%TO.N,Net-(D27-A)*%
X227820000Y-40200000D03*
%TD*%
D10*
%TO.P,D82,1,K*%
%TO.N,ROW 5*%
X308720000Y-131400000D03*
D11*
%TO.P,D82,2,A*%
%TO.N,Net-(D82-A)*%
X308720000Y-121240000D03*
%TD*%
D10*
%TO.P,D50,1,K*%
%TO.N,ROW 3*%
X108700000Y-88500000D03*
D11*
%TO.P,D50,2,A*%
%TO.N,Net-(D50-A)*%
X108700000Y-78340000D03*
%TD*%
D10*
%TO.P,D74,1,K*%
%TO.N,ROW 5*%
X44380000Y-126620000D03*
D11*
%TO.P,D74,2,A*%
%TO.N,Net-(D74-A)*%
X44380000Y-116460000D03*
%TD*%
D10*
%TO.P,D70,1,K*%
%TO.N,ROW 4*%
X232470000Y-107540000D03*
D11*
%TO.P,D70,2,A*%
%TO.N,Net-(D70-A)*%
X232470000Y-97380000D03*
%TD*%
D10*
%TO.P,D61,1,K*%
%TO.N,ROW 4*%
X61050000Y-107570000D03*
D11*
%TO.P,D61,2,A*%
%TO.N,Net-(D61-A)*%
X61050000Y-97410000D03*
%TD*%
D10*
%TO.P,D13,1,K*%
%TO.N,ROW 0*%
X261160000Y-17020000D03*
D11*
%TO.P,D13,2,A*%
%TO.N,Net-(D13-A)*%
X261160000Y-6860000D03*
%TD*%
D10*
%TO.P,D42,1,K*%
%TO.N,ROW 2*%
X237280000Y-69450000D03*
D11*
%TO.P,D42,2,A*%
%TO.N,Net-(D42-A)*%
X237280000Y-59290000D03*
%TD*%
D10*
%TO.P,D31,1,K*%
%TO.N,ROW 2*%
X22940000Y-69420000D03*
D11*
%TO.P,D31,2,A*%
%TO.N,Net-(D31-A)*%
X22940000Y-59260000D03*
%TD*%
D10*
%TO.P,D62,1,K*%
%TO.N,ROW 4*%
X80050000Y-107570000D03*
D11*
%TO.P,D62,2,A*%
%TO.N,Net-(D62-A)*%
X80050000Y-97410000D03*
%TD*%
D10*
%TO.P,D66,1,K*%
%TO.N,ROW 4*%
X156280000Y-107570000D03*
D11*
%TO.P,D66,2,A*%
%TO.N,Net-(D66-A)*%
X156280000Y-97410000D03*
%TD*%
D10*
%TO.P,D56,1,K*%
%TO.N,ROW 3*%
X222971190Y-88060000D03*
D11*
%TO.P,D56,2,A*%
%TO.N,Net-(D56-A)*%
X222971190Y-77900000D03*
%TD*%
D10*
%TO.P,D58,1,K*%
%TO.N,ROW 3*%
X272920000Y-88520000D03*
D11*
%TO.P,D58,2,A*%
%TO.N,Net-(D58-A)*%
X272920000Y-78360000D03*
%TD*%
D10*
%TO.P,D44,1,K*%
%TO.N,ROW 2*%
X280230000Y-69370000D03*
D11*
%TO.P,D44,2,A*%
%TO.N,Net-(D44-A)*%
X280230000Y-59210000D03*
%TD*%
D10*
%TO.P,D25,1,K*%
%TO.N,ROW 1*%
X189710000Y-50430000D03*
D11*
%TO.P,D25,2,A*%
%TO.N,Net-(D25-A)*%
X189710000Y-40270000D03*
%TD*%
D10*
%TO.P,D14,1,K*%
%TO.N,ROW 0*%
X284970000Y-17000000D03*
D11*
%TO.P,D14,2,A*%
%TO.N,Net-(D14-A)*%
X284970000Y-6840000D03*
%TD*%
D10*
%TO.P,D34,1,K*%
%TO.N,ROW 2*%
X84790000Y-69440000D03*
D11*
%TO.P,D34,2,A*%
%TO.N,Net-(D34-A)*%
X84790000Y-59280000D03*
%TD*%
D10*
%TO.P,D49,1,K*%
%TO.N,ROW 3*%
X89580000Y-88350000D03*
D11*
%TO.P,D49,2,A*%
%TO.N,Net-(D49-A)*%
X89580000Y-78190000D03*
%TD*%
D10*
%TO.P,D1,1,K*%
%TO.N,ROW 0*%
X19806190Y-17200000D03*
D11*
%TO.P,D1,2,A*%
%TO.N,Net-(D1-A)*%
X19806190Y-7040000D03*
%TD*%
D10*
%TO.P,D64,1,K*%
%TO.N,ROW 4*%
X118130000Y-107550000D03*
D11*
%TO.P,D64,2,A*%
%TO.N,Net-(D64-A)*%
X118130000Y-97390000D03*
%TD*%
D10*
%TO.P,D68,1,K*%
%TO.N,ROW 4*%
X194400000Y-107650000D03*
D11*
%TO.P,D68,2,A*%
%TO.N,Net-(D68-A)*%
X194400000Y-97490000D03*
%TD*%
D12*
%TO.P,U1,1,GPIO0*%
%TO.N,unconnected-(U1-GPIO0-Pad1)*%
X330991190Y-5800000D03*
%TO.P,U1,2,GPIO1*%
%TO.N,COLUMN 8*%
X330991190Y-8340000D03*
D13*
%TO.P,U1,3,GND*%
%TO.N,unconnected-(U1-GND-Pad3)*%
X330991190Y-10880000D03*
D12*
%TO.P,U1,4,GPIO2*%
%TO.N,COLUMN 7*%
X330991190Y-13420000D03*
%TO.P,U1,5,GPIO3*%
%TO.N,COLUMN 6*%
X330991190Y-15960000D03*
%TO.P,U1,6,GPIO4*%
%TO.N,COLUMN 5*%
X330991190Y-18500000D03*
%TO.P,U1,7,GPIO5*%
%TO.N,COLUMN 4*%
X330991190Y-21040000D03*
D13*
%TO.P,U1,8,GND*%
%TO.N,unconnected-(U1-GND-Pad8)_1*%
X330991190Y-23580000D03*
D12*
%TO.P,U1,9,GPIO6*%
%TO.N,COLUMN 3*%
X330991190Y-26120000D03*
%TO.P,U1,10,GPIO7*%
%TO.N,COLUMN 2*%
X330991190Y-28660000D03*
%TO.P,U1,11,GPIO8*%
%TO.N,COLUMN 1*%
X330991190Y-31200000D03*
%TO.P,U1,12,GPIO9*%
%TO.N,COLUMN 0*%
X330991190Y-33740000D03*
D13*
%TO.P,U1,13,GND*%
%TO.N,unconnected-(U1-GND-Pad13)_1*%
X330991190Y-36280000D03*
D12*
%TO.P,U1,14,GPIO10*%
%TO.N,ROW 0*%
X330991190Y-38820000D03*
%TO.P,U1,15,GPIO11*%
%TO.N,ROW 1*%
X330991190Y-41360000D03*
%TO.P,U1,16,GPIO12*%
%TO.N,ROW 2*%
X330991190Y-43900000D03*
%TO.P,U1,17,GPIO13*%
%TO.N,ROW 3*%
X330991190Y-46440000D03*
D13*
%TO.P,U1,18,GND*%
%TO.N,unconnected-(U1-GND-Pad18)*%
X330991190Y-48980000D03*
D12*
%TO.P,U1,19,GPIO14*%
%TO.N,ROW 4*%
X330991190Y-51520000D03*
%TO.P,U1,20,GPIO15*%
%TO.N,ROW 5*%
X330991190Y-54060000D03*
%TO.P,U1,21,GPIO16*%
%TO.N,unconnected-(U1-GPIO16-Pad21)_1*%
X313211190Y-54060000D03*
%TO.P,U1,22,GPIO17*%
%TO.N,COLUMN 9*%
X313211190Y-51520000D03*
D13*
%TO.P,U1,23,GND*%
%TO.N,unconnected-(U1-GND-Pad23)*%
X313211190Y-48980000D03*
D12*
%TO.P,U1,24,GPIO18*%
%TO.N,COLUMN 10*%
X313211190Y-46440000D03*
%TO.P,U1,25,GPIO19*%
%TO.N,COLUMN 11*%
X313211190Y-43900000D03*
%TO.P,U1,26,GPIO20*%
%TO.N,COLUMN 12*%
X313211190Y-41360000D03*
%TO.P,U1,27,GPIO21*%
%TO.N,COLUMN 13*%
X313211190Y-38820000D03*
D13*
%TO.P,U1,28,GND*%
%TO.N,unconnected-(U1-GND-Pad28)*%
X313211190Y-36280000D03*
D12*
%TO.P,U1,29,GPIO22*%
%TO.N,COLUMN 14*%
X313211190Y-33740000D03*
%TO.P,U1,30,RUN*%
%TO.N,unconnected-(U1-RUN-Pad30)_1*%
X313211190Y-31200000D03*
%TO.P,U1,31,GPIO26_ADC0*%
%TO.N,unconnected-(U1-GPIO26_ADC0-Pad31)*%
X313211190Y-28660000D03*
%TO.P,U1,32,GPIO27_ADC1*%
%TO.N,unconnected-(U1-GPIO27_ADC1-Pad32)*%
X313211190Y-26120000D03*
D13*
%TO.P,U1,33,AGND*%
%TO.N,unconnected-(U1-AGND-Pad33)*%
X313211190Y-23580000D03*
D12*
%TO.P,U1,34,GPIO28_ADC2*%
%TO.N,unconnected-(U1-GPIO28_ADC2-Pad34)*%
X313211190Y-21040000D03*
%TO.P,U1,35,ADC_VREF*%
%TO.N,unconnected-(U1-ADC_VREF-Pad35)*%
X313211190Y-18500000D03*
%TO.P,U1,36,3V3*%
%TO.N,unconnected-(U1-3V3-Pad36)*%
X313211190Y-15960000D03*
%TO.P,U1,37,3V3_EN*%
%TO.N,unconnected-(U1-3V3_EN-Pad37)_1*%
X313211190Y-13420000D03*
D13*
%TO.P,U1,38,GND*%
%TO.N,unconnected-(U1-GND-Pad38)_1*%
X313211190Y-10880000D03*
D12*
%TO.P,U1,39,VSYS*%
%TO.N,unconnected-(U1-VSYS-Pad39)_1*%
X313211190Y-8340000D03*
%TO.P,U1,40,VBUS*%
%TO.N,unconnected-(U1-VBUS-Pad40)*%
X313211190Y-5800000D03*
%TO.P,U1,41,SWCLK*%
%TO.N,unconnected-(U1-SWCLK-Pad41)_1*%
X324641190Y-53830000D03*
D13*
%TO.P,U1,42,GND*%
%TO.N,unconnected-(U1-GND-Pad42)_1*%
X322101190Y-53830000D03*
D12*
%TO.P,U1,43,SWDIO*%
%TO.N,unconnected-(U1-SWDIO-Pad43)*%
X319561190Y-53830000D03*
%TD*%
D10*
%TO.P,D4,1,K*%
%TO.N,ROW 0*%
X80130000Y-17000000D03*
D11*
%TO.P,D4,2,A*%
%TO.N,Net-(D4-A)*%
X80130000Y-6840000D03*
%TD*%
D10*
%TO.P,D53,1,K*%
%TO.N,ROW 3*%
X165790000Y-88540000D03*
D11*
%TO.P,D53,2,A*%
%TO.N,Net-(D53-A)*%
X165790000Y-78380000D03*
%TD*%
D10*
%TO.P,D23,1,K*%
%TO.N,ROW 1*%
X151580000Y-50380000D03*
D11*
%TO.P,D23,2,A*%
%TO.N,Net-(D23-A)*%
X151580000Y-40220000D03*
%TD*%
D10*
%TO.P,D51,1,K*%
%TO.N,ROW 3*%
X127690000Y-88550000D03*
D11*
%TO.P,D51,2,A*%
%TO.N,Net-(D51-A)*%
X127690000Y-78390000D03*
%TD*%
D10*
%TO.P,D39,1,K*%
%TO.N,ROW 2*%
X180190000Y-68960000D03*
D11*
%TO.P,D39,2,A*%
%TO.N,Net-(D39-A)*%
X180190000Y-58800000D03*
%TD*%
D10*
%TO.P,D60,1,K*%
%TO.N,ROW 4*%
X30020000Y-107560000D03*
D11*
%TO.P,D60,2,A*%
%TO.N,Net-(D60-A)*%
X30020000Y-97400000D03*
%TD*%
D14*
%TO.N,COLUMN 1*%
X35641190Y-72000000D03*
%TO.N,COLUMN 2*%
X49341190Y-70800000D03*
%TO.N,COLUMN 3*%
X71041190Y-67000000D03*
%TO.N,COLUMN 4*%
X84491190Y-56350000D03*
%TO.N,COLUMN 5*%
X107141190Y-54700000D03*
%TO.N,COLUMN 6*%
X118241190Y-54000000D03*
%TO.N,COLUMN 7*%
X135581190Y-52285000D03*
%TO.N,COLUMN 8*%
X154631190Y-52285000D03*
%TO.N,COLUMN 9*%
X187946190Y-28495000D03*
%TO.N,COLUMN 10*%
X206996190Y-28400000D03*
%TO.N,COLUMN 11*%
X226046190Y-26395000D03*
%TO.N,COLUMN 12*%
X245096190Y-28495000D03*
%TO.N,COLUMN 13*%
X268911190Y-33255000D03*
%TO.N,COLUMN 0*%
X6923690Y-73600000D03*
%TD*%
D15*
%TO.N,COLUMN 1*%
X325941190Y-32500000D02*
X327241190Y-31200000D01*
X325940000Y-57000000D02*
X325941190Y-57000000D01*
X310940000Y-72000000D02*
X325940000Y-57000000D01*
X35641190Y-72000000D02*
X310940000Y-72000000D01*
X327241190Y-31200000D02*
X330991190Y-31200000D01*
X325941190Y-57000000D02*
X325941190Y-32500000D01*
%TO.N,ROW 1*%
X19860000Y-49240000D02*
X19310000Y-49240000D01*
X228081190Y-50190000D02*
X152431190Y-50190000D01*
X19310000Y-49240000D02*
X18250000Y-50300000D01*
X228311190Y-50420000D02*
X228081190Y-50190000D01*
X36541190Y-49240000D02*
X19860000Y-49240000D01*
X307781190Y-49810000D02*
X247341190Y-49810000D01*
X152431190Y-50190000D02*
X151381190Y-49140000D01*
X151381190Y-49140000D02*
X114291190Y-49140000D01*
X113161190Y-50270000D02*
X37571190Y-50270000D01*
X246731190Y-50420000D02*
X228311190Y-50420000D01*
X37571190Y-50270000D02*
X36541190Y-49240000D01*
X247341190Y-49810000D02*
X246731190Y-50420000D01*
X114291190Y-49140000D02*
X113161190Y-50270000D01*
%TO.N,COLUMN 2*%
X49341190Y-70800000D02*
X49561190Y-71020000D01*
X318241190Y-63008810D02*
X318241190Y-29500000D01*
X310230000Y-71020000D02*
X318241190Y-63008810D01*
X319081190Y-28660000D02*
X330991190Y-28660000D01*
X318241190Y-29500000D02*
X319081190Y-28660000D01*
X49561190Y-71020000D02*
X310230000Y-71020000D01*
%TO.N,COLUMN 3*%
X318821190Y-26120000D02*
X330991190Y-26120000D01*
X316441190Y-57400000D02*
X317741190Y-56100000D01*
X317741190Y-56100000D02*
X317741190Y-27200000D01*
X317741190Y-27200000D02*
X318821190Y-26120000D01*
X71041190Y-67000000D02*
X312660000Y-67000000D01*
X316441190Y-63218810D02*
X316441190Y-57400000D01*
X312660000Y-67000000D02*
X316441190Y-63218810D01*
%TO.N,COLUMN 4*%
X142940000Y-57080000D02*
X142940000Y-57100000D01*
X142940000Y-57100000D02*
X282041190Y-57100000D01*
X316041190Y-56800000D02*
X317141190Y-55700000D01*
X141430000Y-56800000D02*
X141430000Y-56790000D01*
X285141190Y-56800000D02*
X316041190Y-56800000D01*
X317801190Y-21040000D02*
X330991190Y-21040000D01*
X142650000Y-56790000D02*
X142940000Y-57080000D01*
X141130000Y-57100000D02*
X141430000Y-56800000D01*
X141430000Y-56790000D02*
X142650000Y-56790000D01*
X283741190Y-55400000D02*
X285141190Y-56800000D01*
X317241190Y-21600000D02*
X317801190Y-21040000D01*
X317141190Y-55700000D02*
X317141190Y-55400000D01*
X317141190Y-55400000D02*
X317241190Y-55300000D01*
X282041190Y-57100000D02*
X283741190Y-55400000D01*
X317241190Y-55300000D02*
X317241190Y-21600000D01*
X85241190Y-57100000D02*
X141130000Y-57100000D01*
X84491190Y-56350000D02*
X85241190Y-57100000D01*
%TO.N,COLUMN 5*%
X316541190Y-19000000D02*
X317041190Y-18500000D01*
X315506875Y-56400000D02*
X316541190Y-55365685D01*
X281341190Y-56700000D02*
X283241190Y-54800000D01*
X283241190Y-54800000D02*
X307741190Y-54800000D01*
X317041190Y-18500000D02*
X330991190Y-18500000D01*
X316541190Y-55365685D02*
X316541190Y-19000000D01*
X107141190Y-54700000D02*
X250841190Y-54700000D01*
X252841190Y-56700000D02*
X281341190Y-56700000D01*
X309341190Y-56400000D02*
X315506875Y-56400000D01*
X250841190Y-54700000D02*
X252841190Y-56700000D01*
X307741190Y-54800000D02*
X309341190Y-56400000D01*
%TO.N,COLUMN 6*%
X316181190Y-15960000D02*
X330991190Y-15960000D01*
X309841190Y-55900000D02*
X315441190Y-55900000D01*
X118241190Y-54000000D02*
X168641190Y-54000000D01*
X316041190Y-16100000D02*
X316181190Y-15960000D01*
X316041190Y-55100000D02*
X316041190Y-16100000D01*
X169541190Y-53100000D02*
X250141190Y-53100000D01*
X168641190Y-54000000D02*
X169541190Y-53100000D01*
X253141190Y-56100000D02*
X280841190Y-56100000D01*
X282841190Y-54100000D02*
X308041190Y-54100000D01*
X250141190Y-53100000D02*
X253141190Y-56100000D01*
X308041190Y-54100000D02*
X309841190Y-55900000D01*
X315441190Y-55700000D02*
X316041190Y-55100000D01*
X315441190Y-55900000D02*
X315441190Y-55700000D01*
X280841190Y-56100000D02*
X282841190Y-54100000D01*
%TO.N,COLUMN 7*%
X251641190Y-52500000D02*
X251741190Y-52400000D01*
X315341190Y-54500000D02*
X315341190Y-13600000D01*
X311041190Y-55400000D02*
X314441190Y-55400000D01*
X310541190Y-55300000D02*
X310941190Y-55300000D01*
X315341190Y-13600000D02*
X315521190Y-13420000D01*
X310941190Y-55300000D02*
X311041190Y-55400000D01*
X282841190Y-53300000D02*
X308541190Y-53300000D01*
X168741190Y-52500000D02*
X251641190Y-52500000D01*
X152726190Y-52285000D02*
X153741190Y-53300000D01*
X252041190Y-52400000D02*
X253241190Y-51200000D01*
X253241190Y-51200000D02*
X280741190Y-51200000D01*
X153741190Y-53300000D02*
X168241190Y-53300000D01*
X168741190Y-52800000D02*
X168741190Y-52500000D01*
X251741190Y-52400000D02*
X252041190Y-52400000D01*
X135581190Y-52285000D02*
X152726190Y-52285000D01*
X168241190Y-53300000D02*
X168741190Y-52800000D01*
X314441190Y-55400000D02*
X315341190Y-54500000D01*
X315521190Y-13420000D02*
X330991190Y-13420000D01*
X280741190Y-51200000D02*
X282841190Y-53300000D01*
X308541190Y-53300000D02*
X310541190Y-55300000D01*
%TO.N,COLUMN 8*%
X315161190Y-10880000D02*
X328451190Y-10880000D01*
X251071190Y-51870000D02*
X252341190Y-50600000D01*
X167556190Y-52285000D02*
X167971190Y-51870000D01*
X154631190Y-52285000D02*
X167556190Y-52285000D01*
X314271190Y-52670000D02*
X314741190Y-52200000D01*
X283511190Y-52670000D02*
X314271190Y-52670000D01*
X167971190Y-51870000D02*
X251071190Y-51870000D01*
X252341190Y-50600000D02*
X281441190Y-50600000D01*
X281441190Y-50600000D02*
X283511190Y-52670000D01*
X328451190Y-10880000D02*
X330991190Y-8340000D01*
X314741190Y-52200000D02*
X314741190Y-11300000D01*
X314741190Y-11300000D02*
X315161190Y-10880000D01*
%TO.N,COLUMN 9*%
X263541190Y-47100000D02*
X264151190Y-47710000D01*
X290641190Y-48700000D02*
X291021190Y-48320000D01*
X257841190Y-45200000D02*
X257841190Y-47100000D01*
X188751190Y-29300000D02*
X241641190Y-29300000D01*
X312291190Y-50600000D02*
X313211190Y-51520000D01*
X249241190Y-36600000D02*
X257841190Y-45200000D01*
X289651190Y-47710000D02*
X290641190Y-48700000D01*
X310160000Y-48350000D02*
X310160000Y-50600000D01*
X310130000Y-48320000D02*
X310160000Y-48350000D01*
X248941190Y-36600000D02*
X249241190Y-36600000D01*
X310160000Y-50600000D02*
X312291190Y-50600000D01*
X264151190Y-47710000D02*
X289651190Y-47710000D01*
X257841190Y-47100000D02*
X263541190Y-47100000D01*
X291021190Y-48320000D02*
X310130000Y-48320000D01*
X187946190Y-28495000D02*
X188751190Y-29300000D01*
X241641190Y-29300000D02*
X248941190Y-36600000D01*
%TO.N,COLUMN 10*%
X289841190Y-36000000D02*
X291041190Y-37200000D01*
X311951190Y-47700000D02*
X313211190Y-46440000D01*
X291341190Y-47700000D02*
X311951190Y-47700000D01*
X241941190Y-28400000D02*
X249541190Y-36000000D01*
X291041190Y-47400000D02*
X291341190Y-47700000D01*
X249541190Y-36000000D02*
X289841190Y-36000000D01*
X291041190Y-37200000D02*
X291041190Y-47400000D01*
X206996190Y-28400000D02*
X241941190Y-28400000D01*
%TO.N,COLUMN 11*%
X241636190Y-26395000D02*
X250141190Y-34900000D01*
X310441190Y-43900000D02*
X313211190Y-43900000D01*
X310141190Y-43600000D02*
X310441190Y-43900000D01*
X226046190Y-26395000D02*
X241636190Y-26395000D01*
X307580000Y-36500000D02*
X310141190Y-39061190D01*
X290141190Y-34900000D02*
X291741190Y-36500000D01*
X310141190Y-39061190D02*
X310141190Y-43600000D01*
X291741190Y-36500000D02*
X307580000Y-36500000D01*
X250141190Y-34900000D02*
X290141190Y-34900000D01*
%TO.N,COLUMN 12*%
X310850000Y-38790000D02*
X310850000Y-38998810D01*
X245096190Y-28495000D02*
X250601190Y-34000000D01*
X310850000Y-38998810D02*
X313211190Y-41360000D01*
X307960000Y-35900000D02*
X310850000Y-38790000D01*
X292141190Y-35900000D02*
X307960000Y-35900000D01*
X290241190Y-34000000D02*
X292141190Y-35900000D01*
X250601190Y-34000000D02*
X290241190Y-34000000D01*
%TO.N,COLUMN 13*%
X268911190Y-33255000D02*
X290496190Y-33255000D01*
X290496190Y-33255000D02*
X292641190Y-35400000D01*
X292641190Y-35400000D02*
X308541190Y-35400000D01*
X308541190Y-35400000D02*
X311961190Y-38820000D01*
X311961190Y-38820000D02*
X313211190Y-38820000D01*
%TO.N,COLUMN 0*%
X326541190Y-38190000D02*
X330991190Y-33740000D01*
X326541190Y-57618810D02*
X326541190Y-38190000D01*
X310560000Y-73600000D02*
X326541190Y-57618810D01*
X6923690Y-73600000D02*
X310560000Y-73600000D01*
%TO.N,ROW 2*%
X309180000Y-68860000D02*
X309340000Y-68700000D01*
X22661190Y-68860000D02*
X309180000Y-68860000D01*
%TO.N,ROW 3*%
X273421190Y-88060000D02*
X308210000Y-88060000D01*
X241911190Y-88520000D02*
X51333690Y-88520000D01*
X271301190Y-85940000D02*
X273421190Y-88060000D01*
X51333690Y-88520000D02*
X49833690Y-87020000D01*
X49833690Y-87020000D02*
X26311190Y-87020000D01*
X308210000Y-88060000D02*
X308640000Y-88490000D01*
X26311190Y-87020000D02*
X25301190Y-88030000D01*
X244491190Y-85940000D02*
X271301190Y-85940000D01*
X241911190Y-88520000D02*
X244491190Y-85940000D01*
%TO.N,ROW 4*%
X329841190Y-52670000D02*
X330991190Y-51520000D01*
X29231190Y-106600000D02*
X57386190Y-106600000D01*
X57386190Y-106600000D02*
X59376190Y-108590000D01*
X288131190Y-111560000D02*
X325581190Y-111560000D01*
X59376190Y-108590000D02*
X78681190Y-108590000D01*
X329841190Y-107300000D02*
X329841190Y-52670000D01*
X325581190Y-111560000D02*
X329841190Y-107300000D01*
X80121190Y-107150000D02*
X257511190Y-107150000D01*
X78681190Y-108590000D02*
X80121190Y-107150000D01*
X262581190Y-111560000D02*
X288131190Y-111560000D01*
X257841190Y-106820000D02*
X262581190Y-111560000D01*
X257511190Y-107150000D02*
X257841190Y-106820000D01*
%TO.N,ROW 5*%
X246851190Y-125980000D02*
X246511190Y-126320000D01*
X270271190Y-130650000D02*
X270191190Y-130730000D01*
X251601190Y-130730000D02*
X246851190Y-125980000D01*
X246511190Y-126320000D02*
X20670000Y-126320000D01*
X270191190Y-130730000D02*
X251601190Y-130730000D01*
X308611190Y-130650000D02*
X270271190Y-130650000D01*
%TO.N,ROW 0*%
X308181190Y-16160000D02*
X308521190Y-16500000D01*
X19806190Y-17200000D02*
X40751190Y-17200000D01*
X41791190Y-16160000D02*
X308181190Y-16160000D01*
X40751190Y-17200000D02*
X41791190Y-16160000D01*
%TD*%
M02*
