%TF.GenerationSoftware,KiCad,Pcbnew,8.0.7*%
%TF.CreationDate,2025-07-05T17:28:38-07:00*%
%TF.ProjectId,hackpad_v2,6861636b-7061-4645-9f76-322e6b696361,rev?*%
%TF.SameCoordinates,Original*%
%TF.FileFunction,Copper,L2,Bot*%
%TF.FilePolarity,Positive*%
%FSLAX46Y46*%
G04 Gerber Fmt 4.6, Leading zero omitted, Abs format (unit mm)*
G04 Created by KiCad (PCBNEW 8.0.7) date 2025-07-05 17:28:38*
%MOMM*%
%LPD*%
G01*
G04 APERTURE LIST*
G04 Aperture macros list*
%AMRoundRect*
0 Rectangle with rounded corners*
0 $1 Rounding radius*
0 $2 $3 $4 $5 $6 $7 $8 $9 X,Y pos of 4 corners*
0 Add a 4 corners polygon primitive as box body*
4,1,4,$2,$3,$4,$5,$6,$7,$8,$9,$2,$3,0*
0 Add four circle primitives for the rounded corners*
1,1,$1+$1,$2,$3*
1,1,$1+$1,$4,$5*
1,1,$1+$1,$6,$7*
1,1,$1+$1,$8,$9*
0 Add four rect primitives between the rounded corners*
20,1,$1+$1,$2,$3,$4,$5,0*
20,1,$1+$1,$4,$5,$6,$7,0*
20,1,$1+$1,$6,$7,$8,$9,0*
20,1,$1+$1,$8,$9,$2,$3,0*%
G04 Aperture macros list end*
%TA.AperFunction,ComponentPad*%
%ADD10R,2.200000X2.200000*%
%TD*%
%TA.AperFunction,ComponentPad*%
%ADD11O,2.200000X2.200000*%
%TD*%
%TA.AperFunction,SMDPad,CuDef*%
%ADD12RoundRect,0.200000X1.075000X1.050000X-1.075000X1.050000X-1.075000X-1.050000X1.075000X-1.050000X0*%
%TD*%
%TA.AperFunction,ComponentPad*%
%ADD13O,1.700000X1.700000*%
%TD*%
%TA.AperFunction,SMDPad,CuDef*%
%ADD14R,3.500000X1.700000*%
%TD*%
%TA.AperFunction,ComponentPad*%
%ADD15R,1.700000X1.700000*%
%TD*%
%TA.AperFunction,SMDPad,CuDef*%
%ADD16R,1.700000X3.500000*%
%TD*%
%TA.AperFunction,ViaPad*%
%ADD17C,0.600000*%
%TD*%
%TA.AperFunction,Conductor*%
%ADD18C,0.200000*%
%TD*%
G04 APERTURE END LIST*
D10*
%TO.P,D45,1,K*%
%TO.N,ROW 2*%
X309340000Y-68700000D03*
D11*
%TO.P,D45,2,A*%
%TO.N,Net-(D45-A)*%
X309340000Y-58540000D03*
%TD*%
D10*
%TO.P,D30,1,K*%
%TO.N,ROW 1*%
X308650000Y-49810000D03*
D11*
%TO.P,D30,2,A*%
%TO.N,Net-(D30-A)*%
X308650000Y-39650000D03*
%TD*%
D10*
%TO.P,D21,1,K*%
%TO.N,ROW 1*%
X113430000Y-50420000D03*
D11*
%TO.P,D21,2,A*%
%TO.N,Net-(D21-A)*%
X113430000Y-40260000D03*
%TD*%
D12*
%TO.P,SW47,1,1*%
%TO.N,COLUMN 1*%
X35498690Y-80890000D03*
%TO.P,SW47,2,2*%
%TO.N,Net-(D47-A)*%
X48425690Y-78350000D03*
%TD*%
%TO.P,SW36,1,1*%
%TO.N,COLUMN 5*%
X106996190Y-61810000D03*
%TO.P,SW36,2,2*%
%TO.N,Net-(D36-A)*%
X119923190Y-59270000D03*
%TD*%
%TO.P,SW24,1,1*%
%TO.N,COLUMN 8*%
X154631190Y-42760000D03*
%TO.P,SW24,2,2*%
%TO.N,Net-(D24-A)*%
X167558190Y-40220000D03*
%TD*%
D10*
%TO.P,D20,1,K*%
%TO.N,ROW 1*%
X94480000Y-50340000D03*
D11*
%TO.P,D20,2,A*%
%TO.N,Net-(D20-A)*%
X94480000Y-40180000D03*
%TD*%
D10*
%TO.P,D37,1,K*%
%TO.N,ROW 2*%
X142060000Y-69420000D03*
D11*
%TO.P,D37,2,A*%
%TO.N,Net-(D37-A)*%
X142060000Y-59260000D03*
%TD*%
D10*
%TO.P,D8,1,K*%
%TO.N,ROW 0*%
X161030000Y-17040000D03*
D11*
%TO.P,D8,2,A*%
%TO.N,Net-(D8-A)*%
X161030000Y-6880000D03*
%TD*%
D12*
%TO.P,SW71,1,1*%
%TO.N,COLUMN 11*%
X242664940Y-99940000D03*
%TO.P,SW71,2,2*%
%TO.N,Net-(D71-A)*%
X255591940Y-97400000D03*
%TD*%
%TO.P,SW8,1,1*%
%TO.N,COLUMN 7*%
X145081190Y-9400000D03*
%TO.P,SW8,2,2*%
%TO.N,Net-(D8-A)*%
X158008190Y-6860000D03*
%TD*%
D10*
%TO.P,D12,1,K*%
%TO.N,ROW 0*%
X242100000Y-17040000D03*
D11*
%TO.P,D12,2,A*%
%TO.N,Net-(D12-A)*%
X242100000Y-6880000D03*
%TD*%
D12*
%TO.P,SW15,1,1*%
%TO.N,COLUMN 14*%
X292726190Y-9395000D03*
%TO.P,SW15,2,2*%
%TO.N,Net-(D15-A)*%
X305653190Y-6855000D03*
%TD*%
%TO.P,SW56,1,1*%
%TO.N,COLUMN 10*%
X206948690Y-80890000D03*
%TO.P,SW56,2,2*%
%TO.N,Net-(D56-A)*%
X219875690Y-78350000D03*
%TD*%
%TO.P,SW4,1,1*%
%TO.N,COLUMN 3*%
X64116190Y-9405000D03*
%TO.P,SW4,2,2*%
%TO.N,Net-(D4-A)*%
X77043190Y-6865000D03*
%TD*%
D10*
%TO.P,D18,1,K*%
%TO.N,ROW 1*%
X56351190Y-50120000D03*
D11*
%TO.P,D18,2,A*%
%TO.N,Net-(D18-A)*%
X56351190Y-39960000D03*
%TD*%
D12*
%TO.P,SW27,1,1*%
%TO.N,COLUMN 11*%
X211781190Y-42760000D03*
%TO.P,SW27,2,2*%
%TO.N,Net-(D27-A)*%
X224708190Y-40220000D03*
%TD*%
D10*
%TO.P,D80,1,K*%
%TO.N,ROW 5*%
X270530000Y-131380000D03*
D11*
%TO.P,D80,2,A*%
%TO.N,Net-(D80-A)*%
X270530000Y-121220000D03*
%TD*%
D10*
%TO.P,D72,1,K*%
%TO.N,ROW 4*%
X290233690Y-112320000D03*
D11*
%TO.P,D72,2,A*%
%TO.N,Net-(D72-A)*%
X290233690Y-102160000D03*
%TD*%
D10*
%TO.P,D5,1,K*%
%TO.N,ROW 0*%
X99190000Y-17000000D03*
D11*
%TO.P,D5,2,A*%
%TO.N,Net-(D5-A)*%
X99190000Y-6840000D03*
%TD*%
D10*
%TO.P,D40,1,K*%
%TO.N,ROW 2*%
X199141190Y-69340000D03*
D11*
%TO.P,D40,2,A*%
%TO.N,Net-(D40-A)*%
X199141190Y-59180000D03*
%TD*%
D10*
%TO.P,D75,1,K*%
%TO.N,ROW 5*%
X68310000Y-126580000D03*
D11*
%TO.P,D75,2,A*%
%TO.N,Net-(D75-A)*%
X68310000Y-116420000D03*
%TD*%
D10*
%TO.P,D47,1,K*%
%TO.N,ROW 3*%
X51440000Y-88530000D03*
D11*
%TO.P,D47,2,A*%
%TO.N,Net-(D47-A)*%
X51440000Y-78370000D03*
%TD*%
D10*
%TO.P,D55,1,K*%
%TO.N,ROW 3*%
X203830000Y-88480000D03*
D11*
%TO.P,D55,2,A*%
%TO.N,Net-(D55-A)*%
X203830000Y-78320000D03*
%TD*%
D12*
%TO.P,SW31,1,1*%
%TO.N,COLUMN 0*%
X6923690Y-61840000D03*
%TO.P,SW31,2,2*%
%TO.N,Net-(D31-A)*%
X19850690Y-59300000D03*
%TD*%
%TO.P,SW62,1,1*%
%TO.N,COLUMN 2*%
X64071190Y-99940000D03*
%TO.P,SW62,2,2*%
%TO.N,Net-(D62-A)*%
X76998190Y-97400000D03*
%TD*%
D10*
%TO.P,D35,1,K*%
%TO.N,ROW 2*%
X103881190Y-69300000D03*
D11*
%TO.P,D35,2,A*%
%TO.N,Net-(D35-A)*%
X103881190Y-59140000D03*
%TD*%
D12*
%TO.P,SW77,1,1*%
%TO.N,COLUMN 8*%
X192658690Y-118990000D03*
%TO.P,SW77,2,2*%
%TO.N,Net-(D77-A)*%
X205585690Y-116450000D03*
%TD*%
D10*
%TO.P,D52,1,K*%
%TO.N,ROW 3*%
X146780000Y-88560000D03*
D11*
%TO.P,D52,2,A*%
%TO.N,Net-(D52-A)*%
X146780000Y-78400000D03*
%TD*%
D12*
%TO.P,SW7,1,1*%
%TO.N,COLUMN 6*%
X126031190Y-9400000D03*
%TO.P,SW7,2,2*%
%TO.N,Net-(D7-A)*%
X138958190Y-6860000D03*
%TD*%
D10*
%TO.P,D2,1,K*%
%TO.N,ROW 0*%
X41980000Y-17070000D03*
D11*
%TO.P,D2,2,A*%
%TO.N,Net-(D2-A)*%
X41980000Y-6910000D03*
%TD*%
D12*
%TO.P,SW51,1,1*%
%TO.N,COLUMN 5*%
X111698690Y-80890000D03*
%TO.P,SW51,2,2*%
%TO.N,Net-(D51-A)*%
X124625690Y-78350000D03*
%TD*%
%TO.P,SW73,1,1*%
%TO.N,COLUMN 0*%
X4542440Y-118990000D03*
%TO.P,SW73,2,2*%
%TO.N,Net-(D73-A)*%
X17469440Y-116450000D03*
%TD*%
%TO.P,SW2,1,1*%
%TO.N,COLUMN 1*%
X26016190Y-9405000D03*
%TO.P,SW2,2,2*%
%TO.N,Net-(D2-A)*%
X38943190Y-6865000D03*
%TD*%
%TO.P,SW9,1,1*%
%TO.N,COLUMN 8*%
X164131190Y-9400000D03*
%TO.P,SW9,2,2*%
%TO.N,Net-(D9-A)*%
X177058190Y-6860000D03*
%TD*%
%TO.P,SW40,1,1*%
%TO.N,COLUMN 9*%
X183206190Y-61810000D03*
%TO.P,SW40,2,2*%
%TO.N,Net-(D40-A)*%
X196133190Y-59270000D03*
%TD*%
D10*
%TO.P,D28,1,K*%
%TO.N,ROW 1*%
X246731190Y-50420000D03*
D11*
%TO.P,D28,2,A*%
%TO.N,Net-(D28-A)*%
X246731190Y-40260000D03*
%TD*%
D12*
%TO.P,SW20,1,1*%
%TO.N,COLUMN 4*%
X78451190Y-42750000D03*
%TO.P,SW20,2,2*%
%TO.N,Net-(D20-A)*%
X91378190Y-40210000D03*
%TD*%
%TO.P,SW81,1,1*%
%TO.N,COLUMN 12*%
X273623690Y-123750000D03*
%TO.P,SW81,2,2*%
%TO.N,Net-(D81-A)*%
X286550690Y-121210000D03*
%TD*%
%TO.P,SW41,1,1*%
%TO.N,COLUMN 10*%
X202256190Y-61810000D03*
%TO.P,SW41,2,2*%
%TO.N,Net-(D41-A)*%
X215183190Y-59270000D03*
%TD*%
%TO.P,SW16,1,1*%
%TO.N,COLUMN 0*%
X2251190Y-42750000D03*
%TO.P,SW16,2,2*%
%TO.N,Net-(D16-A)*%
X15178190Y-40210000D03*
%TD*%
D10*
%TO.P,D77,1,K*%
%TO.N,ROW 5*%
X208670000Y-126580000D03*
D11*
%TO.P,D77,2,A*%
%TO.N,Net-(D77-A)*%
X208670000Y-116420000D03*
%TD*%
D12*
%TO.P,SW70,1,1*%
%TO.N,COLUMN 10*%
X216471190Y-99940000D03*
%TO.P,SW70,2,2*%
%TO.N,Net-(D70-A)*%
X229398190Y-97400000D03*
%TD*%
%TO.P,SW25,1,1*%
%TO.N,COLUMN 9*%
X173681190Y-42760000D03*
%TO.P,SW25,2,2*%
%TO.N,Net-(D25-A)*%
X186608190Y-40220000D03*
%TD*%
%TO.P,SW80,1,1*%
%TO.N,COLUMN 11*%
X254573690Y-123750000D03*
%TO.P,SW80,2,2*%
%TO.N,Net-(D80-A)*%
X267500690Y-121210000D03*
%TD*%
%TO.P,SW30,1,1*%
%TO.N,COLUMN 14*%
X292678690Y-42785000D03*
%TO.P,SW30,2,2*%
%TO.N,Net-(D30-A)*%
X305605690Y-40245000D03*
%TD*%
D10*
%TO.P,D29,1,K*%
%TO.N,ROW 1*%
X285560000Y-49380000D03*
D11*
%TO.P,D29,2,A*%
%TO.N,Net-(D29-A)*%
X285560000Y-39220000D03*
%TD*%
D12*
%TO.P,SW29,1,1*%
%TO.N,COLUMN 13*%
X259406190Y-42760000D03*
%TO.P,SW29,2,2*%
%TO.N,Net-(D29-A)*%
X272333190Y-40220000D03*
%TD*%
D10*
%TO.P,D54,1,K*%
%TO.N,ROW 3*%
X184770000Y-88540000D03*
D11*
%TO.P,D54,2,A*%
%TO.N,Net-(D54-A)*%
X184770000Y-78380000D03*
%TD*%
D12*
%TO.P,SW12,1,1*%
%TO.N,COLUMN 11*%
X226046190Y-9395000D03*
%TO.P,SW12,2,2*%
%TO.N,Net-(D12-A)*%
X238973190Y-6855000D03*
%TD*%
%TO.P,SW50,1,1*%
%TO.N,COLUMN 4*%
X92648690Y-80890000D03*
%TO.P,SW50,2,2*%
%TO.N,Net-(D50-A)*%
X105575690Y-78350000D03*
%TD*%
D10*
%TO.P,D65,1,K*%
%TO.N,ROW 4*%
X137210000Y-107590000D03*
D11*
%TO.P,D65,2,A*%
%TO.N,Net-(D65-A)*%
X137210000Y-97430000D03*
%TD*%
D10*
%TO.P,D46,1,K*%
%TO.N,ROW 3*%
X25301190Y-88030000D03*
D11*
%TO.P,D46,2,A*%
%TO.N,Net-(D46-A)*%
X25301190Y-77870000D03*
%TD*%
D12*
%TO.P,SW82,1,1*%
%TO.N,COLUMN 14*%
X292673690Y-123750000D03*
%TO.P,SW82,2,2*%
%TO.N,Net-(D82-A)*%
X305600690Y-121210000D03*
%TD*%
D10*
%TO.P,D78,1,K*%
%TO.N,ROW 5*%
X227680000Y-126550000D03*
D11*
%TO.P,D78,2,A*%
%TO.N,Net-(D78-A)*%
X227680000Y-116390000D03*
%TD*%
D10*
%TO.P,D71,1,K*%
%TO.N,ROW 4*%
X258670000Y-107530000D03*
D11*
%TO.P,D71,2,A*%
%TO.N,Net-(D71-A)*%
X258670000Y-97370000D03*
%TD*%
D12*
%TO.P,SW38,1,1*%
%TO.N,COLUMN 7*%
X145106190Y-61810000D03*
%TO.P,SW38,2,2*%
%TO.N,Net-(D38-A)*%
X158033190Y-59270000D03*
%TD*%
D10*
%TO.P,D36,1,K*%
%TO.N,ROW 2*%
X122920000Y-68960000D03*
D11*
%TO.P,D36,2,A*%
%TO.N,Net-(D36-A)*%
X122920000Y-58800000D03*
%TD*%
D10*
%TO.P,D22,1,K*%
%TO.N,ROW 1*%
X132531190Y-49840000D03*
D11*
%TO.P,D22,2,A*%
%TO.N,Net-(D22-A)*%
X132531190Y-39680000D03*
%TD*%
D12*
%TO.P,SW42,1,1*%
%TO.N,COLUMN 11*%
X221306190Y-61810000D03*
%TO.P,SW42,2,2*%
%TO.N,Net-(D42-A)*%
X234233190Y-59270000D03*
%TD*%
D10*
%TO.P,D15,1,K*%
%TO.N,ROW 0*%
X308740000Y-17030000D03*
D11*
%TO.P,D15,2,A*%
%TO.N,Net-(D15-A)*%
X308740000Y-6870000D03*
%TD*%
D12*
%TO.P,SW78,1,1*%
%TO.N,COLUMN 9*%
X211708690Y-118990000D03*
%TO.P,SW78,2,2*%
%TO.N,Net-(D78-A)*%
X224635690Y-116450000D03*
%TD*%
D10*
%TO.P,D11,1,K*%
%TO.N,ROW 0*%
X222990000Y-17030000D03*
D11*
%TO.P,D11,2,A*%
%TO.N,Net-(D11-A)*%
X222990000Y-6870000D03*
%TD*%
D12*
%TO.P,SW32,1,1*%
%TO.N,COLUMN 1*%
X30736190Y-61840000D03*
%TO.P,SW32,2,2*%
%TO.N,Net-(D32-A)*%
X43663190Y-59300000D03*
%TD*%
%TO.P,SW44,1,1*%
%TO.N,COLUMN 13*%
X264168690Y-61810000D03*
%TO.P,SW44,2,2*%
%TO.N,Net-(D44-A)*%
X277095690Y-59270000D03*
%TD*%
%TO.P,SW18,1,1*%
%TO.N,COLUMN 2*%
X40341190Y-42750000D03*
%TO.P,SW18,2,2*%
%TO.N,Net-(D18-A)*%
X53268190Y-40210000D03*
%TD*%
D10*
%TO.P,D41,1,K*%
%TO.N,ROW 2*%
X218161190Y-69430000D03*
D11*
%TO.P,D41,2,A*%
%TO.N,Net-(D41-A)*%
X218161190Y-59270000D03*
%TD*%
D10*
%TO.P,D38,1,K*%
%TO.N,ROW 2*%
X161110000Y-69440000D03*
D11*
%TO.P,D38,2,A*%
%TO.N,Net-(D38-A)*%
X161110000Y-59280000D03*
%TD*%
D12*
%TO.P,SW43,1,1*%
%TO.N,COLUMN 12*%
X240356190Y-61810000D03*
%TO.P,SW43,2,2*%
%TO.N,Net-(D43-A)*%
X253283190Y-59270000D03*
%TD*%
%TO.P,SW54,1,1*%
%TO.N,COLUMN 8*%
X168848690Y-80890000D03*
%TO.P,SW54,2,2*%
%TO.N,Net-(D54-A)*%
X181775690Y-78350000D03*
%TD*%
%TO.P,SW64,1,1*%
%TO.N,COLUMN 4*%
X102171190Y-99940000D03*
%TO.P,SW64,2,2*%
%TO.N,Net-(D64-A)*%
X115098190Y-97400000D03*
%TD*%
D10*
%TO.P,D19,1,K*%
%TO.N,ROW 1*%
X75381190Y-49770000D03*
D11*
%TO.P,D19,2,A*%
%TO.N,Net-(D19-A)*%
X75381190Y-39610000D03*
%TD*%
D12*
%TO.P,SW49,1,1*%
%TO.N,COLUMN 3*%
X73598690Y-80890000D03*
%TO.P,SW49,2,2*%
%TO.N,Net-(D49-A)*%
X86525690Y-78350000D03*
%TD*%
D10*
%TO.P,D69,1,K*%
%TO.N,ROW 4*%
X213360000Y-107570000D03*
D11*
%TO.P,D69,2,A*%
%TO.N,Net-(D69-A)*%
X213360000Y-97410000D03*
%TD*%
D12*
%TO.P,SW79,1,1*%
%TO.N,COLUMN 10*%
X230758690Y-118990000D03*
%TO.P,SW79,2,2*%
%TO.N,Net-(D79-A)*%
X243685690Y-116450000D03*
%TD*%
%TO.P,SW37,1,1*%
%TO.N,COLUMN 6*%
X126056190Y-61810000D03*
%TO.P,SW37,2,2*%
%TO.N,Net-(D37-A)*%
X138983190Y-59270000D03*
%TD*%
%TO.P,SW63,1,1*%
%TO.N,COLUMN 3*%
X83121190Y-99940000D03*
%TO.P,SW63,2,2*%
%TO.N,Net-(D63-A)*%
X96048190Y-97400000D03*
%TD*%
D10*
%TO.P,D6,1,K*%
%TO.N,ROW 0*%
X122980000Y-16990000D03*
D11*
%TO.P,D6,2,A*%
%TO.N,Net-(D6-A)*%
X122980000Y-6830000D03*
%TD*%
D10*
%TO.P,D63,1,K*%
%TO.N,ROW 4*%
X99110000Y-107540000D03*
D11*
%TO.P,D63,2,A*%
%TO.N,Net-(D63-A)*%
X99110000Y-97380000D03*
%TD*%
D10*
%TO.P,D73,1,K*%
%TO.N,ROW 5*%
X20670000Y-126640000D03*
D11*
%TO.P,D73,2,A*%
%TO.N,Net-(D73-A)*%
X20670000Y-116480000D03*
%TD*%
D10*
%TO.P,D76,1,K*%
%TO.N,ROW 5*%
X139830000Y-126580000D03*
D11*
%TO.P,D76,2,A*%
%TO.N,Net-(D76-A)*%
X139830000Y-116420000D03*
%TD*%
D12*
%TO.P,SW6,1,1*%
%TO.N,COLUMN 5*%
X106981190Y-9400000D03*
%TO.P,SW6,2,2*%
%TO.N,Net-(D6-A)*%
X119908190Y-6860000D03*
%TD*%
D10*
%TO.P,D17,1,K*%
%TO.N,ROW 1*%
X37290000Y-50450000D03*
D11*
%TO.P,D17,2,A*%
%TO.N,Net-(D17-A)*%
X37290000Y-40290000D03*
%TD*%
D12*
%TO.P,SW34,1,1*%
%TO.N,COLUMN 3*%
X68856190Y-61830000D03*
%TO.P,SW34,2,2*%
%TO.N,Net-(D34-A)*%
X81783190Y-59290000D03*
%TD*%
D10*
%TO.P,D79,1,K*%
%TO.N,ROW 5*%
X246830000Y-126620000D03*
D11*
%TO.P,D79,2,A*%
%TO.N,Net-(D79-A)*%
X246830000Y-116460000D03*
%TD*%
D10*
%TO.P,D10,1,K*%
%TO.N,ROW 0*%
X203970000Y-17030000D03*
D11*
%TO.P,D10,2,A*%
%TO.N,Net-(D10-A)*%
X203970000Y-6870000D03*
%TD*%
D10*
%TO.P,D32,1,K*%
%TO.N,ROW 2*%
X46760000Y-69400000D03*
D11*
%TO.P,D32,2,A*%
%TO.N,Net-(D32-A)*%
X46760000Y-59240000D03*
%TD*%
D12*
%TO.P,SW57,1,1*%
%TO.N,COLUMN 11*%
X225998690Y-80890000D03*
%TO.P,SW57,2,2*%
%TO.N,Net-(D57-A)*%
X238925690Y-78350000D03*
%TD*%
D10*
%TO.P,D16,1,K*%
%TO.N,ROW 1*%
X18250000Y-50300000D03*
D11*
%TO.P,D16,2,A*%
%TO.N,Net-(D16-A)*%
X18250000Y-40140000D03*
%TD*%
D12*
%TO.P,SW75,1,1*%
%TO.N,COLUMN 2*%
X52167440Y-118990000D03*
%TO.P,SW75,2,2*%
%TO.N,Net-(D75-A)*%
X65094440Y-116450000D03*
%TD*%
D10*
%TO.P,D24,1,K*%
%TO.N,ROW 1*%
X170640000Y-50390000D03*
D11*
%TO.P,D24,2,A*%
%TO.N,Net-(D24-A)*%
X170640000Y-40230000D03*
%TD*%
D12*
%TO.P,SW26,1,1*%
%TO.N,COLUMN 10*%
X192731190Y-42760000D03*
%TO.P,SW26,2,2*%
%TO.N,Net-(D26-A)*%
X205658190Y-40220000D03*
%TD*%
D10*
%TO.P,D48,1,K*%
%TO.N,ROW 3*%
X70600000Y-88500000D03*
D11*
%TO.P,D48,2,A*%
%TO.N,Net-(D48-A)*%
X70600000Y-78340000D03*
%TD*%
D12*
%TO.P,SW19,1,1*%
%TO.N,COLUMN 3*%
X59401190Y-42750000D03*
%TO.P,SW19,2,2*%
%TO.N,Net-(D19-A)*%
X72328190Y-40210000D03*
%TD*%
%TO.P,SW11,1,1*%
%TO.N,COLUMN 10*%
X206996190Y-9395000D03*
%TO.P,SW11,2,2*%
%TO.N,Net-(D11-A)*%
X219923190Y-6855000D03*
%TD*%
%TO.P,SW45,1,1*%
%TO.N,COLUMN 14*%
X292678690Y-61835000D03*
%TO.P,SW45,2,2*%
%TO.N,Net-(D45-A)*%
X305605690Y-59295000D03*
%TD*%
%TO.P,SW28,1,1*%
%TO.N,COLUMN 12*%
X230831190Y-42760000D03*
%TO.P,SW28,2,2*%
%TO.N,Net-(D28-A)*%
X243758190Y-40220000D03*
%TD*%
D10*
%TO.P,D26,1,K*%
%TO.N,ROW 1*%
X208750000Y-50360000D03*
D11*
%TO.P,D26,2,A*%
%TO.N,Net-(D26-A)*%
X208750000Y-40200000D03*
%TD*%
D12*
%TO.P,SW60,1,1*%
%TO.N,COLUMN 0*%
X14067440Y-99940000D03*
%TO.P,SW60,2,2*%
%TO.N,Net-(D60-A)*%
X26994440Y-97400000D03*
%TD*%
D10*
%TO.P,D59,1,K*%
%TO.N,ROW 3*%
X308640000Y-88490000D03*
D11*
%TO.P,D59,2,A*%
%TO.N,Net-(D59-A)*%
X308640000Y-78330000D03*
%TD*%
D12*
%TO.P,SW21,1,1*%
%TO.N,COLUMN 5*%
X97501190Y-42750000D03*
%TO.P,SW21,2,2*%
%TO.N,Net-(D21-A)*%
X110428190Y-40210000D03*
%TD*%
%TO.P,SW35,1,1*%
%TO.N,COLUMN 4*%
X87926190Y-61820000D03*
%TO.P,SW35,2,2*%
%TO.N,Net-(D35-A)*%
X100853190Y-59280000D03*
%TD*%
D10*
%TO.P,D9,1,K*%
%TO.N,ROW 0*%
X180200000Y-17000000D03*
D11*
%TO.P,D9,2,A*%
%TO.N,Net-(D9-A)*%
X180200000Y-6840000D03*
%TD*%
D12*
%TO.P,SW66,1,1*%
%TO.N,COLUMN 6*%
X140271190Y-99940000D03*
%TO.P,SW66,2,2*%
%TO.N,Net-(D66-A)*%
X153198190Y-97400000D03*
%TD*%
D10*
%TO.P,D81,1,K*%
%TO.N,ROW 5*%
X289620000Y-131340000D03*
D11*
%TO.P,D81,2,A*%
%TO.N,Net-(D81-A)*%
X289620000Y-121180000D03*
%TD*%
D10*
%TO.P,D7,1,K*%
%TO.N,ROW 0*%
X142040000Y-16950000D03*
D11*
%TO.P,D7,2,A*%
%TO.N,Net-(D7-A)*%
X142040000Y-6790000D03*
%TD*%
D10*
%TO.P,D33,1,K*%
%TO.N,ROW 2*%
X65820000Y-69430000D03*
D11*
%TO.P,D33,2,A*%
%TO.N,Net-(D33-A)*%
X65820000Y-59270000D03*
%TD*%
D10*
%TO.P,D43,1,K*%
%TO.N,ROW 2*%
X256360000Y-69390000D03*
D11*
%TO.P,D43,2,A*%
%TO.N,Net-(D43-A)*%
X256360000Y-59230000D03*
%TD*%
D12*
%TO.P,SW33,1,1*%
%TO.N,COLUMN 2*%
X49786190Y-61840000D03*
%TO.P,SW33,2,2*%
%TO.N,Net-(D33-A)*%
X62713190Y-59300000D03*
%TD*%
D10*
%TO.P,D3,1,K*%
%TO.N,ROW 0*%
X61050000Y-17070000D03*
D11*
%TO.P,D3,2,A*%
%TO.N,Net-(D3-A)*%
X61050000Y-6910000D03*
%TD*%
D12*
%TO.P,SW67,1,1*%
%TO.N,COLUMN 7*%
X159321190Y-99940000D03*
%TO.P,SW67,2,2*%
%TO.N,Net-(D67-A)*%
X172248190Y-97400000D03*
%TD*%
%TO.P,SW55,1,1*%
%TO.N,COLUMN 9*%
X187898690Y-80890000D03*
%TO.P,SW55,2,2*%
%TO.N,Net-(D55-A)*%
X200825690Y-78350000D03*
%TD*%
D10*
%TO.P,D57,1,K*%
%TO.N,ROW 3*%
X241911190Y-88520000D03*
D11*
%TO.P,D57,2,A*%
%TO.N,Net-(D57-A)*%
X241911190Y-78360000D03*
%TD*%
D10*
%TO.P,D67,1,K*%
%TO.N,ROW 4*%
X175260000Y-107510000D03*
D11*
%TO.P,D67,2,A*%
%TO.N,Net-(D67-A)*%
X175260000Y-97350000D03*
%TD*%
D12*
%TO.P,SW58,1,1*%
%TO.N,COLUMN 12*%
X256954940Y-80890000D03*
%TO.P,SW58,2,2*%
%TO.N,Net-(D58-A)*%
X269881940Y-78350000D03*
%TD*%
D10*
%TO.P,D27,1,K*%
%TO.N,ROW 1*%
X227820000Y-50360000D03*
D11*
%TO.P,D27,2,A*%
%TO.N,Net-(D27-A)*%
X227820000Y-40200000D03*
%TD*%
D10*
%TO.P,D82,1,K*%
%TO.N,ROW 5*%
X308720000Y-131400000D03*
D11*
%TO.P,D82,2,A*%
%TO.N,Net-(D82-A)*%
X308720000Y-121240000D03*
%TD*%
D10*
%TO.P,D50,1,K*%
%TO.N,ROW 3*%
X108700000Y-88500000D03*
D11*
%TO.P,D50,2,A*%
%TO.N,Net-(D50-A)*%
X108700000Y-78340000D03*
%TD*%
D12*
%TO.P,SW10,1,1*%
%TO.N,COLUMN 9*%
X187946190Y-9395000D03*
%TO.P,SW10,2,2*%
%TO.N,Net-(D10-A)*%
X200873190Y-6855000D03*
%TD*%
D10*
%TO.P,D74,1,K*%
%TO.N,ROW 5*%
X44380000Y-126620000D03*
D11*
%TO.P,D74,2,A*%
%TO.N,Net-(D74-A)*%
X44380000Y-116460000D03*
%TD*%
D10*
%TO.P,D70,1,K*%
%TO.N,ROW 4*%
X232470000Y-107540000D03*
D11*
%TO.P,D70,2,A*%
%TO.N,Net-(D70-A)*%
X232470000Y-97380000D03*
%TD*%
D12*
%TO.P,SW22,1,1*%
%TO.N,COLUMN 6*%
X116541190Y-42760000D03*
%TO.P,SW22,2,2*%
%TO.N,Net-(D22-A)*%
X129468190Y-40220000D03*
%TD*%
%TO.P,SW13,1,1*%
%TO.N,COLUMN 12*%
X245096190Y-9395000D03*
%TO.P,SW13,2,2*%
%TO.N,Net-(D13-A)*%
X258023190Y-6855000D03*
%TD*%
%TO.P,SW76,1,1*%
%TO.N,COLUMN 5*%
X123602440Y-118990000D03*
%TO.P,SW76,2,2*%
%TO.N,Net-(D76-A)*%
X136529440Y-116450000D03*
%TD*%
D10*
%TO.P,D61,1,K*%
%TO.N,ROW 4*%
X61050000Y-107570000D03*
D11*
%TO.P,D61,2,A*%
%TO.N,Net-(D61-A)*%
X61050000Y-97410000D03*
%TD*%
D12*
%TO.P,SW53,1,1*%
%TO.N,COLUMN 7*%
X149798690Y-80890000D03*
%TO.P,SW53,2,2*%
%TO.N,Net-(D53-A)*%
X162725690Y-78350000D03*
%TD*%
%TO.P,SW3,1,1*%
%TO.N,COLUMN 2*%
X45066190Y-9405000D03*
%TO.P,SW3,2,2*%
%TO.N,Net-(D3-A)*%
X57993190Y-6865000D03*
%TD*%
D10*
%TO.P,D13,1,K*%
%TO.N,ROW 0*%
X261160000Y-17020000D03*
D11*
%TO.P,D13,2,A*%
%TO.N,Net-(D13-A)*%
X261160000Y-6860000D03*
%TD*%
D10*
%TO.P,D42,1,K*%
%TO.N,ROW 2*%
X237280000Y-69450000D03*
D11*
%TO.P,D42,2,A*%
%TO.N,Net-(D42-A)*%
X237280000Y-59290000D03*
%TD*%
D10*
%TO.P,D31,1,K*%
%TO.N,ROW 2*%
X22940000Y-69420000D03*
D11*
%TO.P,D31,2,A*%
%TO.N,Net-(D31-A)*%
X22940000Y-59260000D03*
%TD*%
D12*
%TO.P,SW59,1,1*%
%TO.N,COLUMN 14*%
X292678690Y-80885000D03*
%TO.P,SW59,2,2*%
%TO.N,Net-(D59-A)*%
X305605690Y-78345000D03*
%TD*%
D10*
%TO.P,D62,1,K*%
%TO.N,ROW 4*%
X80050000Y-107570000D03*
D11*
%TO.P,D62,2,A*%
%TO.N,Net-(D62-A)*%
X80050000Y-97410000D03*
%TD*%
D10*
%TO.P,D66,1,K*%
%TO.N,ROW 4*%
X156280000Y-107570000D03*
D11*
%TO.P,D66,2,A*%
%TO.N,Net-(D66-A)*%
X156280000Y-97410000D03*
%TD*%
D12*
%TO.P,SW74,1,1*%
%TO.N,COLUMN 1*%
X28354940Y-118990000D03*
%TO.P,SW74,2,2*%
%TO.N,Net-(D74-A)*%
X41281940Y-116450000D03*
%TD*%
%TO.P,SW14,1,1*%
%TO.N,COLUMN 13*%
X268911190Y-9400000D03*
%TO.P,SW14,2,2*%
%TO.N,Net-(D14-A)*%
X281838190Y-6860000D03*
%TD*%
D10*
%TO.P,D56,1,K*%
%TO.N,ROW 3*%
X222971190Y-88060000D03*
D11*
%TO.P,D56,2,A*%
%TO.N,Net-(D56-A)*%
X222971190Y-77900000D03*
%TD*%
D10*
%TO.P,D58,1,K*%
%TO.N,ROW 3*%
X272920000Y-88520000D03*
D11*
%TO.P,D58,2,A*%
%TO.N,Net-(D58-A)*%
X272920000Y-78360000D03*
%TD*%
D10*
%TO.P,D44,1,K*%
%TO.N,ROW 2*%
X280230000Y-69370000D03*
D11*
%TO.P,D44,2,A*%
%TO.N,Net-(D44-A)*%
X280230000Y-59210000D03*
%TD*%
D10*
%TO.P,D25,1,K*%
%TO.N,ROW 1*%
X189710000Y-50430000D03*
D11*
%TO.P,D25,2,A*%
%TO.N,Net-(D25-A)*%
X189710000Y-40270000D03*
%TD*%
D12*
%TO.P,SW46,1,1*%
%TO.N,COLUMN 0*%
X9304940Y-80890000D03*
%TO.P,SW46,2,2*%
%TO.N,Net-(D46-A)*%
X22231940Y-78350000D03*
%TD*%
D10*
%TO.P,D14,1,K*%
%TO.N,ROW 0*%
X284970000Y-17000000D03*
D11*
%TO.P,D14,2,A*%
%TO.N,Net-(D14-A)*%
X284970000Y-6840000D03*
%TD*%
D12*
%TO.P,SW5,1,1*%
%TO.N,COLUMN 4*%
X83166190Y-9405000D03*
%TO.P,SW5,2,2*%
%TO.N,Net-(D5-A)*%
X96093190Y-6865000D03*
%TD*%
%TO.P,SW23,1,1*%
%TO.N,COLUMN 7*%
X135581190Y-42760000D03*
%TO.P,SW23,2,2*%
%TO.N,Net-(D23-A)*%
X148508190Y-40220000D03*
%TD*%
%TO.P,SW65,1,1*%
%TO.N,COLUMN 5*%
X121221190Y-99940000D03*
%TO.P,SW65,2,2*%
%TO.N,Net-(D65-A)*%
X134148190Y-97400000D03*
%TD*%
%TO.P,SW69,1,1*%
%TO.N,COLUMN 9*%
X197421190Y-99940000D03*
%TO.P,SW69,2,2*%
%TO.N,Net-(D69-A)*%
X210348190Y-97400000D03*
%TD*%
D10*
%TO.P,D34,1,K*%
%TO.N,ROW 2*%
X84790000Y-69440000D03*
D11*
%TO.P,D34,2,A*%
%TO.N,Net-(D34-A)*%
X84790000Y-59280000D03*
%TD*%
D12*
%TO.P,SW72,1,1*%
%TO.N,COLUMN 12*%
X273623690Y-104700000D03*
%TO.P,SW72,2,2*%
%TO.N,Net-(D72-A)*%
X286550690Y-102160000D03*
%TD*%
D10*
%TO.P,D49,1,K*%
%TO.N,ROW 3*%
X89580000Y-88350000D03*
D11*
%TO.P,D49,2,A*%
%TO.N,Net-(D49-A)*%
X89580000Y-78190000D03*
%TD*%
D10*
%TO.P,D1,1,K*%
%TO.N,ROW 0*%
X19806190Y-17200000D03*
D11*
%TO.P,D1,2,A*%
%TO.N,Net-(D1-A)*%
X19806190Y-7040000D03*
%TD*%
D10*
%TO.P,D64,1,K*%
%TO.N,ROW 4*%
X118130000Y-107550000D03*
D11*
%TO.P,D64,2,A*%
%TO.N,Net-(D64-A)*%
X118130000Y-97390000D03*
%TD*%
D12*
%TO.P,SW68,1,1*%
%TO.N,COLUMN 8*%
X178371190Y-99940000D03*
%TO.P,SW68,2,2*%
%TO.N,Net-(D68-A)*%
X191298190Y-97400000D03*
%TD*%
%TO.P,SW52,1,1*%
%TO.N,COLUMN 6*%
X130748690Y-80890000D03*
%TO.P,SW52,2,2*%
%TO.N,Net-(D52-A)*%
X143675690Y-78350000D03*
%TD*%
%TO.P,SW1,1,1*%
%TO.N,COLUMN 0*%
X2256190Y-9415000D03*
%TO.P,SW1,2,2*%
%TO.N,Net-(D1-A)*%
X15183190Y-6875000D03*
%TD*%
D10*
%TO.P,D68,1,K*%
%TO.N,ROW 4*%
X194400000Y-107650000D03*
D11*
%TO.P,D68,2,A*%
%TO.N,Net-(D68-A)*%
X194400000Y-97490000D03*
%TD*%
D12*
%TO.P,SW48,1,1*%
%TO.N,COLUMN 2*%
X54548690Y-80890000D03*
%TO.P,SW48,2,2*%
%TO.N,Net-(D48-A)*%
X67475690Y-78350000D03*
%TD*%
%TO.P,SW39,1,1*%
%TO.N,COLUMN 8*%
X164156190Y-61810000D03*
%TO.P,SW39,2,2*%
%TO.N,Net-(D39-A)*%
X177083190Y-59270000D03*
%TD*%
%TO.P,SW17,1,1*%
%TO.N,COLUMN 1*%
X21291190Y-42750000D03*
%TO.P,SW17,2,2*%
%TO.N,Net-(D17-A)*%
X34218190Y-40210000D03*
%TD*%
D13*
%TO.P,U1,1,GPIO0*%
%TO.N,unconnected-(U1-GPIO0-Pad1)*%
X330991190Y-5800000D03*
D14*
%TO.N,unconnected-(U1-GPIO0-Pad1)_1*%
X331891190Y-5800000D03*
D13*
%TO.P,U1,2,GPIO1*%
%TO.N,COLUMN 8*%
X330991190Y-8340000D03*
D14*
X331891190Y-8340000D03*
D15*
%TO.P,U1,3,GND*%
%TO.N,unconnected-(U1-GND-Pad3)*%
X330991190Y-10880000D03*
D14*
%TO.N,unconnected-(U1-GND-Pad3)_1*%
X331891190Y-10880000D03*
D13*
%TO.P,U1,4,GPIO2*%
%TO.N,COLUMN 7*%
X330991190Y-13420000D03*
D14*
X331891190Y-13420000D03*
D13*
%TO.P,U1,5,GPIO3*%
%TO.N,COLUMN 6*%
X330991190Y-15960000D03*
D14*
X331891190Y-15960000D03*
D13*
%TO.P,U1,6,GPIO4*%
%TO.N,COLUMN 5*%
X330991190Y-18500000D03*
D14*
X331891190Y-18500000D03*
D13*
%TO.P,U1,7,GPIO5*%
%TO.N,COLUMN 4*%
X330991190Y-21040000D03*
D14*
X331891190Y-21040000D03*
D15*
%TO.P,U1,8,GND*%
%TO.N,unconnected-(U1-GND-Pad8)_1*%
X330991190Y-23580000D03*
D14*
%TO.N,unconnected-(U1-GND-Pad8)*%
X331891190Y-23580000D03*
D13*
%TO.P,U1,9,GPIO6*%
%TO.N,COLUMN 3*%
X330991190Y-26120000D03*
D14*
X331891190Y-26120000D03*
D13*
%TO.P,U1,10,GPIO7*%
%TO.N,COLUMN 2*%
X330991190Y-28660000D03*
D14*
X331891190Y-28660000D03*
D13*
%TO.P,U1,11,GPIO8*%
%TO.N,COLUMN 1*%
X330991190Y-31200000D03*
D14*
X331891190Y-31200000D03*
D13*
%TO.P,U1,12,GPIO9*%
%TO.N,COLUMN 0*%
X330991190Y-33740000D03*
D14*
X331891190Y-33740000D03*
D15*
%TO.P,U1,13,GND*%
%TO.N,unconnected-(U1-GND-Pad13)_1*%
X330991190Y-36280000D03*
D14*
%TO.N,unconnected-(U1-GND-Pad13)*%
X331891190Y-36280000D03*
D13*
%TO.P,U1,14,GPIO10*%
%TO.N,ROW 0*%
X330991190Y-38820000D03*
D14*
X331891190Y-38820000D03*
D13*
%TO.P,U1,15,GPIO11*%
%TO.N,ROW 1*%
X330991190Y-41360000D03*
D14*
X331891190Y-41360000D03*
D13*
%TO.P,U1,16,GPIO12*%
%TO.N,ROW 2*%
X330991190Y-43900000D03*
D14*
X331891190Y-43900000D03*
D13*
%TO.P,U1,17,GPIO13*%
%TO.N,ROW 3*%
X330991190Y-46440000D03*
D14*
X331891190Y-46440000D03*
D15*
%TO.P,U1,18,GND*%
%TO.N,unconnected-(U1-GND-Pad18)*%
X330991190Y-48980000D03*
D14*
%TO.N,unconnected-(U1-GND-Pad18)_1*%
X331891190Y-48980000D03*
D13*
%TO.P,U1,19,GPIO14*%
%TO.N,ROW 4*%
X330991190Y-51520000D03*
D14*
X331891190Y-51520000D03*
D13*
%TO.P,U1,20,GPIO15*%
%TO.N,ROW 5*%
X330991190Y-54060000D03*
D14*
X331891190Y-54060000D03*
D13*
%TO.P,U1,21,GPIO16*%
%TO.N,unconnected-(U1-GPIO16-Pad21)_1*%
X313211190Y-54060000D03*
D14*
%TO.N,unconnected-(U1-GPIO16-Pad21)*%
X312311190Y-54060000D03*
D13*
%TO.P,U1,22,GPIO17*%
%TO.N,COLUMN 9*%
X313211190Y-51520000D03*
D14*
X312311190Y-51520000D03*
D15*
%TO.P,U1,23,GND*%
%TO.N,unconnected-(U1-GND-Pad23)*%
X313211190Y-48980000D03*
D14*
%TO.N,unconnected-(U1-GND-Pad23)_1*%
X312311190Y-48980000D03*
D13*
%TO.P,U1,24,GPIO18*%
%TO.N,COLUMN 10*%
X313211190Y-46440000D03*
D14*
X312311190Y-46440000D03*
D13*
%TO.P,U1,25,GPIO19*%
%TO.N,COLUMN 11*%
X313211190Y-43900000D03*
D14*
X312311190Y-43900000D03*
D13*
%TO.P,U1,26,GPIO20*%
%TO.N,COLUMN 12*%
X313211190Y-41360000D03*
D14*
X312311190Y-41360000D03*
D13*
%TO.P,U1,27,GPIO21*%
%TO.N,COLUMN 13*%
X313211190Y-38820000D03*
D14*
X312311190Y-38820000D03*
D15*
%TO.P,U1,28,GND*%
%TO.N,unconnected-(U1-GND-Pad28)*%
X313211190Y-36280000D03*
D14*
%TO.N,unconnected-(U1-GND-Pad28)_1*%
X312311190Y-36280000D03*
D13*
%TO.P,U1,29,GPIO22*%
%TO.N,COLUMN 14*%
X313211190Y-33740000D03*
D14*
X312311190Y-33740000D03*
D13*
%TO.P,U1,30,RUN*%
%TO.N,unconnected-(U1-RUN-Pad30)_1*%
X313211190Y-31200000D03*
D14*
%TO.N,unconnected-(U1-RUN-Pad30)*%
X312311190Y-31200000D03*
D13*
%TO.P,U1,31,GPIO26_ADC0*%
%TO.N,unconnected-(U1-GPIO26_ADC0-Pad31)*%
X313211190Y-28660000D03*
D14*
%TO.N,unconnected-(U1-GPIO26_ADC0-Pad31)_1*%
X312311190Y-28660000D03*
D13*
%TO.P,U1,32,GPIO27_ADC1*%
%TO.N,unconnected-(U1-GPIO27_ADC1-Pad32)*%
X313211190Y-26120000D03*
D14*
%TO.N,unconnected-(U1-GPIO27_ADC1-Pad32)_1*%
X312311190Y-26120000D03*
D15*
%TO.P,U1,33,AGND*%
%TO.N,unconnected-(U1-AGND-Pad33)*%
X313211190Y-23580000D03*
D14*
%TO.N,unconnected-(U1-AGND-Pad33)_1*%
X312311190Y-23580000D03*
D13*
%TO.P,U1,34,GPIO28_ADC2*%
%TO.N,unconnected-(U1-GPIO28_ADC2-Pad34)*%
X313211190Y-21040000D03*
D14*
%TO.N,unconnected-(U1-GPIO28_ADC2-Pad34)_1*%
X312311190Y-21040000D03*
D13*
%TO.P,U1,35,ADC_VREF*%
%TO.N,unconnected-(U1-ADC_VREF-Pad35)*%
X313211190Y-18500000D03*
D14*
%TO.N,unconnected-(U1-ADC_VREF-Pad35)_1*%
X312311190Y-18500000D03*
D13*
%TO.P,U1,36,3V3*%
%TO.N,unconnected-(U1-3V3-Pad36)*%
X313211190Y-15960000D03*
D14*
%TO.N,unconnected-(U1-3V3-Pad36)_1*%
X312311190Y-15960000D03*
D13*
%TO.P,U1,37,3V3_EN*%
%TO.N,unconnected-(U1-3V3_EN-Pad37)_1*%
X313211190Y-13420000D03*
D14*
%TO.N,unconnected-(U1-3V3_EN-Pad37)*%
X312311190Y-13420000D03*
D15*
%TO.P,U1,38,GND*%
%TO.N,unconnected-(U1-GND-Pad38)_1*%
X313211190Y-10880000D03*
D14*
%TO.N,unconnected-(U1-GND-Pad38)*%
X312311190Y-10880000D03*
D13*
%TO.P,U1,39,VSYS*%
%TO.N,unconnected-(U1-VSYS-Pad39)_1*%
X313211190Y-8340000D03*
D14*
%TO.N,unconnected-(U1-VSYS-Pad39)*%
X312311190Y-8340000D03*
D13*
%TO.P,U1,40,VBUS*%
%TO.N,unconnected-(U1-VBUS-Pad40)*%
X313211190Y-5800000D03*
D14*
%TO.N,unconnected-(U1-VBUS-Pad40)_1*%
X312311190Y-5800000D03*
D13*
%TO.P,U1,41,SWCLK*%
%TO.N,unconnected-(U1-SWCLK-Pad41)_1*%
X324641190Y-53830000D03*
D16*
%TO.N,unconnected-(U1-SWCLK-Pad41)*%
X324641190Y-54730000D03*
D15*
%TO.P,U1,42,GND*%
%TO.N,unconnected-(U1-GND-Pad42)_1*%
X322101190Y-53830000D03*
D16*
%TO.N,unconnected-(U1-GND-Pad42)*%
X322101190Y-54730000D03*
D13*
%TO.P,U1,43,SWDIO*%
%TO.N,unconnected-(U1-SWDIO-Pad43)*%
X319561190Y-53830000D03*
D16*
%TO.N,unconnected-(U1-SWDIO-Pad43)_1*%
X319561190Y-54730000D03*
%TD*%
D10*
%TO.P,D4,1,K*%
%TO.N,ROW 0*%
X80130000Y-17000000D03*
D11*
%TO.P,D4,2,A*%
%TO.N,Net-(D4-A)*%
X80130000Y-6840000D03*
%TD*%
D10*
%TO.P,D53,1,K*%
%TO.N,ROW 3*%
X165790000Y-88540000D03*
D11*
%TO.P,D53,2,A*%
%TO.N,Net-(D53-A)*%
X165790000Y-78380000D03*
%TD*%
D10*
%TO.P,D23,1,K*%
%TO.N,ROW 1*%
X151580000Y-50380000D03*
D11*
%TO.P,D23,2,A*%
%TO.N,Net-(D23-A)*%
X151580000Y-40220000D03*
%TD*%
D10*
%TO.P,D51,1,K*%
%TO.N,ROW 3*%
X127690000Y-88550000D03*
D11*
%TO.P,D51,2,A*%
%TO.N,Net-(D51-A)*%
X127690000Y-78390000D03*
%TD*%
D10*
%TO.P,D39,1,K*%
%TO.N,ROW 2*%
X180190000Y-68960000D03*
D11*
%TO.P,D39,2,A*%
%TO.N,Net-(D39-A)*%
X180190000Y-58800000D03*
%TD*%
D12*
%TO.P,SW61,1,1*%
%TO.N,COLUMN 1*%
X45041190Y-99920000D03*
%TO.P,SW61,2,2*%
%TO.N,Net-(D61-A)*%
X57968190Y-97380000D03*
%TD*%
D10*
%TO.P,D60,1,K*%
%TO.N,ROW 4*%
X30020000Y-107560000D03*
D11*
%TO.P,D60,2,A*%
%TO.N,Net-(D60-A)*%
X30020000Y-97400000D03*
%TD*%
D17*
%TO.N,COLUMN 1*%
X35641190Y-72000000D03*
%TO.N,COLUMN 2*%
X49341190Y-70800000D03*
%TO.N,COLUMN 3*%
X71041190Y-67000000D03*
%TO.N,COLUMN 4*%
X84491190Y-56350000D03*
%TO.N,COLUMN 5*%
X107141190Y-54700000D03*
%TO.N,COLUMN 6*%
X118241190Y-54000000D03*
%TO.N,COLUMN 7*%
X135581190Y-52285000D03*
%TO.N,COLUMN 8*%
X154631190Y-52285000D03*
%TO.N,COLUMN 9*%
X187946190Y-28495000D03*
%TO.N,COLUMN 10*%
X206996190Y-28400000D03*
%TO.N,COLUMN 11*%
X226046190Y-26395000D03*
%TO.N,COLUMN 12*%
X245096190Y-28495000D03*
%TO.N,COLUMN 13*%
X268911190Y-33255000D03*
%TO.N,COLUMN 0*%
X6923690Y-73600000D03*
%TD*%
D18*
%TO.N,COLUMN 1*%
X45041190Y-99920000D02*
X45041190Y-95400000D01*
X35641190Y-70000000D02*
X30241190Y-64600000D01*
X21441190Y-50200000D02*
X21441190Y-40800000D01*
X45041190Y-102099025D02*
X45041190Y-99920000D01*
X45041190Y-95400000D02*
X36141190Y-86500000D01*
X36141190Y-86200000D02*
X35641190Y-85700000D01*
X30241190Y-64300000D02*
X30841190Y-63700000D01*
X28354940Y-118785275D02*
X45041190Y-102099025D01*
X30841190Y-59600000D02*
X21441190Y-50200000D01*
X30841190Y-63700000D02*
X30841190Y-59600000D01*
X35641190Y-85700000D02*
X35641190Y-70000000D01*
X26016190Y-36225000D02*
X26016190Y-9405000D01*
X21441190Y-40800000D02*
X26016190Y-36225000D01*
X28354940Y-118990000D02*
X28354940Y-118785275D01*
X36141190Y-86500000D02*
X36141190Y-86200000D01*
X30241190Y-64600000D02*
X30241190Y-64300000D01*
%TO.N,ROW 1*%
X308131190Y-49810000D02*
X310351190Y-47590000D01*
X325151190Y-47590000D02*
X327341190Y-45400000D01*
X310351190Y-47590000D02*
X325151190Y-47590000D01*
X327341190Y-45400000D02*
X327341190Y-45010000D01*
X327341190Y-45010000D02*
X330991190Y-41360000D01*
X307781190Y-49810000D02*
X308131190Y-49810000D01*
%TO.N,COLUMN 2*%
X54641190Y-88700000D02*
X63941190Y-98000000D01*
X63941190Y-98300000D02*
X64141190Y-98500000D01*
X54241190Y-77800000D02*
X54241190Y-78600000D01*
X54641190Y-79000000D02*
X54641190Y-88700000D01*
X61141190Y-111200000D02*
X59957440Y-111200000D01*
X40341190Y-48500000D02*
X49341190Y-57500000D01*
X49341190Y-72900000D02*
X54241190Y-77800000D01*
X54241190Y-78600000D02*
X54641190Y-79000000D01*
X45066190Y-9405000D02*
X45066190Y-38025000D01*
X45066190Y-38025000D02*
X40341190Y-42750000D01*
X49341190Y-57500000D02*
X49341190Y-72900000D01*
X64141190Y-98500000D02*
X64141190Y-108200000D01*
X59957440Y-111200000D02*
X52167440Y-118990000D01*
X64141190Y-108200000D02*
X61141190Y-111200000D01*
X63941190Y-98000000D02*
X63941190Y-98300000D01*
X40341190Y-42750000D02*
X40341190Y-48500000D01*
%TO.N,COLUMN 3*%
X73241190Y-69200000D02*
X69041190Y-65000000D01*
X83121190Y-99940000D02*
X83121190Y-94280000D01*
X73241190Y-84400000D02*
X73241190Y-69200000D01*
X64116190Y-36825000D02*
X64116190Y-9405000D01*
X59841190Y-41100000D02*
X64116190Y-36825000D01*
X59441190Y-45100000D02*
X59841190Y-44700000D01*
X69041190Y-65000000D02*
X69041190Y-55000000D01*
X83121190Y-94280000D02*
X73241190Y-84400000D01*
X69041190Y-55000000D02*
X59441190Y-45400000D01*
X59441190Y-45400000D02*
X59441190Y-45100000D01*
X59841190Y-44700000D02*
X59841190Y-41100000D01*
%TO.N,COLUMN 4*%
X102171190Y-93130000D02*
X102171190Y-99940000D01*
X88141190Y-60400000D02*
X88141190Y-74700000D01*
X83166190Y-9405000D02*
X83166190Y-34775000D01*
X93041190Y-79600000D02*
X93041190Y-84000000D01*
X78341190Y-39600000D02*
X78341190Y-50200000D01*
X88141190Y-74700000D02*
X93041190Y-79600000D01*
X87441190Y-59300000D02*
X87441190Y-59700000D01*
X87441190Y-59700000D02*
X88141190Y-60400000D01*
X83166190Y-34775000D02*
X78341190Y-39600000D01*
X93041190Y-84000000D02*
X102171190Y-93130000D01*
X78341190Y-50200000D02*
X87441190Y-59300000D01*
%TO.N,COLUMN 5*%
X106981190Y-31660000D02*
X106981190Y-9400000D01*
X123602440Y-118990000D02*
X121141190Y-116528750D01*
X112041190Y-69400000D02*
X107441190Y-64800000D01*
X107141190Y-64200000D02*
X107141190Y-54700000D01*
X97641190Y-41000000D02*
X106981190Y-31660000D01*
X107441190Y-64500000D02*
X107141190Y-64200000D01*
X97641190Y-45200000D02*
X97641190Y-41000000D01*
X107441190Y-64800000D02*
X107441190Y-64500000D01*
X121141190Y-97400000D02*
X112041190Y-88300000D01*
X112041190Y-88300000D02*
X112041190Y-69400000D01*
X121141190Y-116528750D02*
X121141190Y-97400000D01*
X107141190Y-54700000D02*
X97641190Y-45200000D01*
%TO.N,COLUMN 6*%
X126031190Y-9400000D02*
X126031190Y-33270000D01*
X118640000Y-51720000D02*
X126056190Y-59136190D01*
X130748690Y-80890000D02*
X130748690Y-87298690D01*
X126056190Y-59136190D02*
X126056190Y-61810000D01*
X130748690Y-78868690D02*
X130748690Y-80890000D01*
X130748690Y-87298690D02*
X140271190Y-96821190D01*
X140271190Y-96821190D02*
X140271190Y-99940000D01*
X116541190Y-49621190D02*
X118640000Y-51720000D01*
X126056190Y-74176190D02*
X130748690Y-78868690D01*
X118241190Y-52118810D02*
X118640000Y-51720000D01*
X126031190Y-33270000D02*
X116541190Y-42760000D01*
X116541190Y-42760000D02*
X116541190Y-49621190D01*
X118241190Y-54000000D02*
X118241190Y-52118810D01*
X126056190Y-61810000D02*
X126056190Y-74176190D01*
%TO.N,COLUMN 7*%
X135581190Y-42760000D02*
X142136190Y-36205000D01*
X135581190Y-52285000D02*
X135581190Y-42760000D01*
X136486190Y-53190000D02*
X135581190Y-52285000D01*
X145106190Y-58706190D02*
X139590000Y-53190000D01*
X142136190Y-32905000D02*
X145081190Y-29960000D01*
X149798690Y-88748690D02*
X149798690Y-80890000D01*
X139590000Y-53190000D02*
X136486190Y-53190000D01*
X145081190Y-29960000D02*
X145081190Y-9400000D01*
X145106190Y-61810000D02*
X145106190Y-58706190D01*
X142136190Y-36205000D02*
X142136190Y-32905000D01*
X159321190Y-99940000D02*
X159321190Y-98271190D01*
X159321190Y-98271190D02*
X149798690Y-88748690D01*
X149798690Y-80890000D02*
X149798690Y-77898690D01*
X149798690Y-77898690D02*
X145106190Y-73206190D01*
X145106190Y-73206190D02*
X145106190Y-61810000D01*
%TO.N,COLUMN 8*%
X164156190Y-73816190D02*
X168848690Y-78508690D01*
X164156190Y-59946190D02*
X164156190Y-61810000D01*
X164131190Y-9400000D02*
X164131190Y-33260000D01*
X187782676Y-118990000D02*
X192658690Y-118990000D01*
X158441190Y-56095000D02*
X160305000Y-56095000D01*
X168848690Y-88758690D02*
X178371190Y-98281190D01*
X164156190Y-61810000D02*
X164156190Y-73816190D01*
X154631190Y-42760000D02*
X154631190Y-52285000D01*
X178371190Y-98281190D02*
X178371190Y-99940000D01*
X154631190Y-52285000D02*
X158441190Y-56095000D01*
X178371190Y-99940000D02*
X178371190Y-109578514D01*
X168848690Y-80890000D02*
X168848690Y-88758690D01*
X160305000Y-56095000D02*
X164156190Y-59946190D01*
X164131190Y-33260000D02*
X154631190Y-42760000D01*
X178371190Y-109578514D02*
X187782676Y-118990000D01*
X168848690Y-78508690D02*
X168848690Y-80890000D01*
%TO.N,COLUMN 9*%
X173681190Y-42760000D02*
X187946190Y-28495000D01*
X211708690Y-118990000D02*
X211708690Y-116508690D01*
X183541190Y-74911190D02*
X183541190Y-62145000D01*
X187946190Y-28495000D02*
X187946190Y-9395000D01*
X197421190Y-102221190D02*
X197421190Y-99940000D01*
X187898690Y-80890000D02*
X187898690Y-79268690D01*
X197421190Y-99940000D02*
X197421190Y-96781190D01*
X183206190Y-57616190D02*
X173681190Y-48091190D01*
X187898690Y-87258690D02*
X187898690Y-80890000D01*
X211708690Y-116508690D02*
X197421190Y-102221190D01*
X197421190Y-96781190D02*
X187898690Y-87258690D01*
X183541190Y-62145000D02*
X183206190Y-61810000D01*
X173681190Y-48091190D02*
X173681190Y-42760000D01*
X187898690Y-79268690D02*
X183541190Y-74911190D01*
X183206190Y-61810000D02*
X183206190Y-57616190D01*
%TO.N,COLUMN 10*%
X202256190Y-74636190D02*
X206948690Y-79328690D01*
X192731190Y-42760000D02*
X192731190Y-46260000D01*
X192731190Y-46260000D02*
X202256190Y-55785000D01*
X206948690Y-80890000D02*
X206948690Y-86378690D01*
X216471190Y-95901190D02*
X216471190Y-99940000D01*
X206996190Y-28495000D02*
X192731190Y-42760000D01*
X311651190Y-46440000D02*
X313211190Y-46440000D01*
X230758690Y-117458690D02*
X230758690Y-118990000D01*
X216471190Y-99940000D02*
X216471190Y-103171190D01*
X206948690Y-79328690D02*
X206948690Y-80890000D01*
X206996190Y-28495000D02*
X206996190Y-28400000D01*
X206948690Y-86378690D02*
X216471190Y-95901190D01*
X202256190Y-55785000D02*
X202256190Y-61810000D01*
X202256190Y-61810000D02*
X202256190Y-74636190D01*
X206996190Y-9395000D02*
X206996190Y-28400000D01*
X216471190Y-103171190D02*
X230758690Y-117458690D01*
%TO.N,COLUMN 11*%
X221041190Y-60000000D02*
X221341190Y-60300000D01*
X226041190Y-78900000D02*
X226041190Y-83300000D01*
X254541190Y-114200000D02*
X254541190Y-121800000D01*
X221341190Y-74200000D02*
X226041190Y-78900000D01*
X211741190Y-40700000D02*
X211841190Y-40800000D01*
X311651190Y-43900000D02*
X313211190Y-43900000D01*
X221341190Y-60300000D02*
X221341190Y-74200000D01*
X226046190Y-26395000D02*
X211741190Y-40700000D01*
X254541190Y-121800000D02*
X254573690Y-121832500D01*
X242641190Y-97900000D02*
X242641190Y-102300000D01*
X211841190Y-40800000D02*
X211841190Y-50600000D01*
X240641190Y-97900000D02*
X242641190Y-97900000D01*
X211841190Y-50600000D02*
X221041190Y-59800000D01*
X226041190Y-83300000D02*
X240641190Y-97900000D01*
X254573690Y-121832500D02*
X254573690Y-123750000D01*
X242641190Y-102300000D02*
X254541190Y-114200000D01*
X226046190Y-9395000D02*
X226046190Y-26395000D01*
X221041190Y-59800000D02*
X221041190Y-60000000D01*
%TO.N,COLUMN 12*%
X245096190Y-28495000D02*
X245091190Y-28500000D01*
X250712190Y-74571000D02*
X240356190Y-64215000D01*
X253975940Y-75668764D02*
X252878176Y-74571000D01*
X310981190Y-41360000D02*
X313211190Y-41360000D01*
X273623690Y-123750000D02*
X273623690Y-99792079D01*
X230831190Y-50561190D02*
X230831190Y-42760000D01*
X256954940Y-83123329D02*
X256954940Y-80890000D01*
X230831190Y-42760000D02*
X245096190Y-28495000D01*
X240356190Y-64215000D02*
X240356190Y-61810000D01*
X273623690Y-123750000D02*
X273623690Y-104700000D01*
X253975940Y-80144329D02*
X253975940Y-75668764D01*
X273623690Y-99792079D02*
X253975940Y-80144329D01*
X240356190Y-61810000D02*
X240356190Y-60086190D01*
X273623690Y-99792079D02*
X256954940Y-83123329D01*
X252878176Y-74571000D02*
X250712190Y-74571000D01*
X240356190Y-60086190D02*
X230831190Y-50561190D01*
X245096190Y-28495000D02*
X245096190Y-9395000D01*
%TO.N,COLUMN 13*%
X268911190Y-9400000D02*
X268911190Y-33255000D01*
X259406190Y-42760000D02*
X259406190Y-55265000D01*
X268911190Y-33255000D02*
X259406190Y-42760000D01*
X264168690Y-60027500D02*
X264168690Y-61810000D01*
X259406190Y-55265000D02*
X264168690Y-60027500D01*
%TO.N,COLUMN 14*%
X292726190Y-34000000D02*
X292986190Y-33740000D01*
X292726190Y-34000000D02*
X292726190Y-123697500D01*
X292726190Y-123697500D02*
X292673690Y-123750000D01*
X292986190Y-33740000D02*
X313211190Y-33740000D01*
X292726190Y-9395000D02*
X292726190Y-34000000D01*
%TO.N,COLUMN 0*%
X13941190Y-103600000D02*
X11141190Y-103600000D01*
X2256190Y-9415000D02*
X2256190Y-42745000D01*
X6923690Y-75182500D02*
X9341190Y-77600000D01*
X11141190Y-103600000D02*
X5841190Y-108900000D01*
X5841190Y-109500000D02*
X4542440Y-110798750D01*
X2256190Y-9415000D02*
X2256190Y-57172500D01*
X2256190Y-42745000D02*
X2251190Y-42750000D01*
X4542440Y-110798750D02*
X4542440Y-118990000D01*
X6923690Y-61840000D02*
X6923690Y-75182500D01*
X2256190Y-57172500D02*
X6923690Y-61840000D01*
X13941190Y-97800000D02*
X13941190Y-103600000D01*
X9341190Y-77600000D02*
X9341190Y-92500000D01*
X9341190Y-92500000D02*
X14041190Y-97200000D01*
X14041190Y-97200000D02*
X14041190Y-97700000D01*
X5841190Y-108900000D02*
X5841190Y-109500000D01*
X14041190Y-97700000D02*
X13941190Y-97800000D01*
%TO.N,ROW 2*%
X323076190Y-67965000D02*
X327741190Y-63300000D01*
X327741190Y-63300000D02*
X327741190Y-47150000D01*
X327741190Y-47150000D02*
X330991190Y-43900000D01*
X309340000Y-68700000D02*
X310075000Y-67965000D01*
X310075000Y-67965000D02*
X323076190Y-67965000D01*
%TO.N,ROW 3*%
X309070000Y-88060000D02*
X308640000Y-88490000D01*
X310170000Y-88060000D02*
X309070000Y-88060000D01*
X328441190Y-78900000D02*
X328441190Y-48990000D01*
X310170000Y-88060000D02*
X319281190Y-88060000D01*
X328441190Y-48990000D02*
X330991190Y-46440000D01*
X319281190Y-88060000D02*
X328441190Y-78900000D01*
%TO.N,ROW 5*%
X330991190Y-108270000D02*
X330991190Y-54060000D01*
X308611190Y-130650000D02*
X330991190Y-108270000D01*
%TO.N,ROW 0*%
X309131190Y-17110000D02*
X314121190Y-17110000D01*
X329041190Y-32030000D02*
X329041190Y-38000000D01*
X308521190Y-16500000D02*
X309131190Y-17110000D01*
X314121190Y-17110000D02*
X329041190Y-32030000D01*
X329041190Y-38000000D02*
X330171190Y-38000000D01*
X330171190Y-38000000D02*
X330991190Y-38820000D01*
%TO.N,Net-(D1-A)*%
X19641190Y-6875000D02*
X19806190Y-7040000D01*
X15183190Y-6875000D02*
X19641190Y-6875000D01*
X15183190Y-6875000D02*
X15183190Y-7497000D01*
%TO.N,Net-(D2-A)*%
X38943190Y-6865000D02*
X40926190Y-6865000D01*
X40926190Y-6865000D02*
X41791190Y-6000000D01*
%TO.N,Net-(D3-A)*%
X61050000Y-6910000D02*
X58038190Y-6910000D01*
X58038190Y-6910000D02*
X57993190Y-6865000D01*
%TO.N,Net-(D4-A)*%
X77068190Y-6840000D02*
X77043190Y-6865000D01*
X80130000Y-6840000D02*
X77068190Y-6840000D01*
%TO.N,Net-(D5-A)*%
X99190000Y-6840000D02*
X96118190Y-6840000D01*
X96118190Y-6840000D02*
X96093190Y-6865000D01*
%TO.N,Net-(D6-A)*%
X122980000Y-6830000D02*
X119938190Y-6830000D01*
X119938190Y-6830000D02*
X119908190Y-6860000D01*
%TO.N,Net-(D7-A)*%
X142040000Y-6790000D02*
X139028190Y-6790000D01*
X139028190Y-6790000D02*
X138958190Y-6860000D01*
%TO.N,Net-(D8-A)*%
X158028190Y-6880000D02*
X158008190Y-6860000D01*
X161030000Y-6880000D02*
X158028190Y-6880000D01*
%TO.N,Net-(D9-A)*%
X180200000Y-6840000D02*
X177078190Y-6840000D01*
X177078190Y-6840000D02*
X177058190Y-6860000D01*
%TO.N,Net-(D10-A)*%
X200888190Y-6870000D02*
X200873190Y-6855000D01*
X203970000Y-6870000D02*
X200888190Y-6870000D01*
%TO.N,Net-(D11-A)*%
X222990000Y-6870000D02*
X219938190Y-6870000D01*
X219938190Y-6870000D02*
X219923190Y-6855000D01*
%TO.N,Net-(D12-A)*%
X238998190Y-6880000D02*
X238973190Y-6855000D01*
X242100000Y-6880000D02*
X238998190Y-6880000D01*
%TO.N,Net-(D13-A)*%
X258028190Y-6860000D02*
X258023190Y-6855000D01*
X261160000Y-6860000D02*
X258028190Y-6860000D01*
%TO.N,Net-(D14-A)*%
X281858190Y-6840000D02*
X281838190Y-6860000D01*
X284970000Y-6840000D02*
X281858190Y-6840000D01*
%TO.N,Net-(D15-A)*%
X308740000Y-6870000D02*
X305668190Y-6870000D01*
X305668190Y-6870000D02*
X305653190Y-6855000D01*
%TO.N,Net-(D16-A)*%
X18250000Y-40140000D02*
X15248190Y-40140000D01*
X15178190Y-40210000D02*
X15178190Y-40997000D01*
X15248190Y-40140000D02*
X15178190Y-40210000D01*
%TO.N,Net-(D17-A)*%
X34298190Y-40290000D02*
X34218190Y-40210000D01*
X37290000Y-40290000D02*
X34298190Y-40290000D01*
%TO.N,Net-(D18-A)*%
X56351190Y-39960000D02*
X53518190Y-39960000D01*
X53518190Y-39960000D02*
X53268190Y-40210000D01*
%TO.N,Net-(D19-A)*%
X75381190Y-39610000D02*
X72928190Y-39610000D01*
X72928190Y-39610000D02*
X72328190Y-40210000D01*
%TO.N,Net-(D20-A)*%
X91408190Y-40180000D02*
X91378190Y-40210000D01*
X94480000Y-40180000D02*
X91408190Y-40180000D01*
%TO.N,Net-(D21-A)*%
X110478190Y-40260000D02*
X110428190Y-40210000D01*
X113430000Y-40260000D02*
X110478190Y-40260000D01*
%TO.N,Net-(D22-A)*%
X130008190Y-39680000D02*
X129468190Y-40220000D01*
X132531190Y-39680000D02*
X130008190Y-39680000D01*
%TO.N,Net-(D23-A)*%
X148508190Y-40220000D02*
X148508190Y-41187000D01*
X151580000Y-40220000D02*
X148508190Y-40220000D01*
%TO.N,Net-(D24-A)*%
X170630000Y-40220000D02*
X170640000Y-40230000D01*
X167558190Y-40220000D02*
X170630000Y-40220000D01*
%TO.N,Net-(D25-A)*%
X186658190Y-40270000D02*
X186608190Y-40220000D01*
X189710000Y-40270000D02*
X186658190Y-40270000D01*
%TO.N,Net-(D26-A)*%
X208750000Y-40200000D02*
X205678190Y-40200000D01*
X205678190Y-40200000D02*
X205658190Y-40220000D01*
%TO.N,Net-(D27-A)*%
X224728190Y-40200000D02*
X224708190Y-40220000D01*
X227820000Y-40200000D02*
X224728190Y-40200000D01*
%TO.N,Net-(D28-A)*%
X243798190Y-40260000D02*
X243758190Y-40220000D01*
X246731190Y-40260000D02*
X243798190Y-40260000D01*
%TO.N,Net-(D29-A)*%
X285560000Y-39220000D02*
X281050000Y-39220000D01*
X280020000Y-40250000D02*
X279990000Y-40220000D01*
X279990000Y-40220000D02*
X272333190Y-40220000D01*
X281050000Y-39220000D02*
X280020000Y-40250000D01*
%TO.N,Net-(D30-A)*%
X306200690Y-39650000D02*
X305605690Y-40245000D01*
X308650000Y-39650000D02*
X306200690Y-39650000D01*
%TO.N,Net-(D31-A)*%
X22900000Y-59300000D02*
X22940000Y-59260000D01*
X19850690Y-59300000D02*
X22900000Y-59300000D01*
%TO.N,Net-(D32-A)*%
X43723190Y-59240000D02*
X43663190Y-59300000D01*
X46760000Y-59240000D02*
X43723190Y-59240000D01*
%TO.N,Net-(D33-A)*%
X65820000Y-59270000D02*
X62743190Y-59270000D01*
X62743190Y-59270000D02*
X62713190Y-59300000D01*
%TO.N,Net-(D34-A)*%
X84790000Y-59280000D02*
X81793190Y-59280000D01*
X81793190Y-59280000D02*
X81783190Y-59290000D01*
%TO.N,Net-(D35-A)*%
X103881190Y-59140000D02*
X100993190Y-59140000D01*
X100993190Y-59140000D02*
X100853190Y-59280000D01*
%TO.N,Net-(D36-A)*%
X120393190Y-58800000D02*
X119923190Y-59270000D01*
X122920000Y-58800000D02*
X120393190Y-58800000D01*
%TO.N,Net-(D37-A)*%
X138993190Y-59260000D02*
X138983190Y-59270000D01*
X142060000Y-59260000D02*
X138993190Y-59260000D01*
%TO.N,Net-(D38-A)*%
X161110000Y-59280000D02*
X158043190Y-59280000D01*
X158043190Y-59280000D02*
X158033190Y-59270000D01*
%TO.N,Net-(D39-A)*%
X177553190Y-58800000D02*
X177083190Y-59270000D01*
X180190000Y-58800000D02*
X177553190Y-58800000D01*
%TO.N,Net-(D40-A)*%
X199141190Y-59180000D02*
X196223190Y-59180000D01*
X196223190Y-59180000D02*
X196133190Y-59270000D01*
%TO.N,Net-(D41-A)*%
X218161190Y-59270000D02*
X215183190Y-59270000D01*
%TO.N,Net-(D42-A)*%
X234253190Y-59290000D02*
X234233190Y-59270000D01*
X237280000Y-59290000D02*
X234253190Y-59290000D01*
%TO.N,Net-(D43-A)*%
X253323190Y-59230000D02*
X253283190Y-59270000D01*
X256360000Y-59230000D02*
X253323190Y-59230000D01*
%TO.N,Net-(D44-A)*%
X280230000Y-59210000D02*
X277155690Y-59210000D01*
X277155690Y-59210000D02*
X277095690Y-59270000D01*
%TO.N,Net-(D45-A)*%
X306360690Y-58540000D02*
X305605690Y-59295000D01*
X309340000Y-58540000D02*
X306360690Y-58540000D01*
%TO.N,Net-(D46-A)*%
X22711940Y-77870000D02*
X22231940Y-78350000D01*
X25301190Y-77870000D02*
X22711940Y-77870000D01*
%TO.N,Net-(D47-A)*%
X48445690Y-78370000D02*
X48425690Y-78350000D01*
X51440000Y-78370000D02*
X48445690Y-78370000D01*
%TO.N,Net-(D48-A)*%
X67485690Y-78340000D02*
X67475690Y-78350000D01*
X70600000Y-78340000D02*
X67485690Y-78340000D01*
%TO.N,Net-(D49-A)*%
X86685690Y-78190000D02*
X86525690Y-78350000D01*
X89580000Y-78190000D02*
X86685690Y-78190000D01*
%TO.N,Net-(D50-A)*%
X108700000Y-78340000D02*
X105585690Y-78340000D01*
X105585690Y-78340000D02*
X105575690Y-78350000D01*
%TO.N,Net-(D51-A)*%
X127690000Y-78390000D02*
X124665690Y-78390000D01*
X124665690Y-78390000D02*
X124625690Y-78350000D01*
%TO.N,Net-(D52-A)*%
X146650000Y-78350000D02*
X143675690Y-78350000D01*
X146780000Y-78220000D02*
X146650000Y-78350000D01*
X146780000Y-78400000D02*
X146780000Y-78220000D01*
%TO.N,Net-(D53-A)*%
X162755690Y-78380000D02*
X162725690Y-78350000D01*
X165790000Y-78380000D02*
X162755690Y-78380000D01*
%TO.N,Net-(D54-A)*%
X184770000Y-78380000D02*
X181805690Y-78380000D01*
X181805690Y-78380000D02*
X181775690Y-78350000D01*
%TO.N,Net-(D55-A)*%
X200855690Y-78320000D02*
X200825690Y-78350000D01*
X203830000Y-78320000D02*
X200855690Y-78320000D01*
%TO.N,Net-(D56-A)*%
X222971190Y-77900000D02*
X220325690Y-77900000D01*
X220325690Y-77900000D02*
X219875690Y-78350000D01*
%TO.N,Net-(D57-A)*%
X241911190Y-78360000D02*
X238935690Y-78360000D01*
X238935690Y-78360000D02*
X238925690Y-78350000D01*
%TO.N,Net-(D58-A)*%
X269891940Y-78360000D02*
X269881940Y-78350000D01*
X272920000Y-78360000D02*
X269891940Y-78360000D01*
%TO.N,Net-(D59-A)*%
X308640000Y-78330000D02*
X305620690Y-78330000D01*
X305620690Y-78330000D02*
X305605690Y-78345000D01*
%TO.N,Net-(D60-A)*%
X30020000Y-97400000D02*
X26994440Y-97400000D01*
%TO.N,Net-(D61-A)*%
X57998190Y-97410000D02*
X57968190Y-97380000D01*
X61050000Y-97410000D02*
X57998190Y-97410000D01*
%TO.N,Net-(D62-A)*%
X80050000Y-97410000D02*
X77008190Y-97410000D01*
X77008190Y-97410000D02*
X76998190Y-97400000D01*
%TO.N,Net-(D63-A)*%
X99110000Y-97380000D02*
X96068190Y-97380000D01*
X96068190Y-97380000D02*
X96048190Y-97400000D01*
%TO.N,Net-(D64-A)*%
X118130000Y-97390000D02*
X115108190Y-97390000D01*
X115108190Y-97390000D02*
X115098190Y-97400000D01*
%TO.N,Net-(D65-A)*%
X137210000Y-97430000D02*
X134178190Y-97430000D01*
X134178190Y-97430000D02*
X134148190Y-97400000D01*
%TO.N,Net-(D66-A)*%
X153208190Y-97410000D02*
X153198190Y-97400000D01*
X156280000Y-97410000D02*
X153208190Y-97410000D01*
%TO.N,Net-(D67-A)*%
X175260000Y-97350000D02*
X172298190Y-97350000D01*
X172298190Y-97350000D02*
X172248190Y-97400000D01*
%TO.N,Net-(D68-A)*%
X194400000Y-97490000D02*
X191388190Y-97490000D01*
X191388190Y-97490000D02*
X191298190Y-97400000D01*
%TO.N,Net-(D69-A)*%
X210358190Y-97410000D02*
X210348190Y-97400000D01*
X213360000Y-97410000D02*
X210358190Y-97410000D01*
%TO.N,Net-(D70-A)*%
X232470000Y-97380000D02*
X229418190Y-97380000D01*
X229418190Y-97380000D02*
X229398190Y-97400000D01*
%TO.N,Net-(D71-A)*%
X255621940Y-97370000D02*
X255591940Y-97400000D01*
X258670000Y-97370000D02*
X255621940Y-97370000D01*
%TO.N,Net-(D72-A)*%
X290233690Y-102160000D02*
X286550690Y-102160000D01*
%TO.N,Net-(D73-A)*%
X20670000Y-116480000D02*
X17499440Y-116480000D01*
X17499440Y-116480000D02*
X17469440Y-116450000D01*
%TO.N,Net-(D74-A)*%
X44380000Y-116460000D02*
X41291940Y-116460000D01*
X41291940Y-116460000D02*
X41281940Y-116450000D01*
%TO.N,Net-(D75-A)*%
X68310000Y-116420000D02*
X65124440Y-116420000D01*
X65124440Y-116420000D02*
X65094440Y-116450000D01*
%TO.N,Net-(D76-A)*%
X136559440Y-116420000D02*
X136529440Y-116450000D01*
X139830000Y-116420000D02*
X136559440Y-116420000D01*
%TO.N,Net-(D77-A)*%
X205615690Y-116420000D02*
X205585690Y-116450000D01*
X208670000Y-116420000D02*
X205615690Y-116420000D01*
%TO.N,Net-(D78-A)*%
X224695690Y-116390000D02*
X224635690Y-116450000D01*
X227680000Y-116390000D02*
X224695690Y-116390000D01*
%TO.N,Net-(D79-A)*%
X246830000Y-116460000D02*
X243695690Y-116460000D01*
X243695690Y-116460000D02*
X243685690Y-116450000D01*
%TO.N,Net-(D80-A)*%
X267510690Y-121220000D02*
X267500690Y-121210000D01*
X270530000Y-121220000D02*
X267510690Y-121220000D01*
%TO.N,Net-(D81-A)*%
X289620000Y-121180000D02*
X286580690Y-121180000D01*
X286580690Y-121180000D02*
X286550690Y-121210000D01*
%TO.N,Net-(D82-A)*%
X308720000Y-121240000D02*
X305630690Y-121240000D01*
X305630690Y-121240000D02*
X305600690Y-121210000D01*
%TD*%
M02*
