%TF.GenerationSoftware,KiCad,Pcbnew,8.0.7*%
%TF.CreationDate,2025-07-05T17:28:38-07:00*%
%TF.ProjectId,hackpad_v2,6861636b-7061-4645-9f76-322e6b696361,rev?*%
%TF.SameCoordinates,Original*%
%TF.FileFunction,Soldermask,Top*%
%TF.FilePolarity,Negative*%
%FSLAX46Y46*%
G04 Gerber Fmt 4.6, Leading zero omitted, Abs format (unit mm)*
G04 Created by KiCad (PCBNEW 8.0.7) date 2025-07-05 17:28:38*
%MOMM*%
%LPD*%
G01*
G04 APERTURE LIST*
%ADD10R,2.200000X2.200000*%
%ADD11O,2.200000X2.200000*%
%ADD12C,1.701800*%
%ADD13C,3.000000*%
%ADD14C,3.987800*%
%ADD15C,3.048000*%
%ADD16O,1.800000X1.800000*%
%ADD17O,1.500000X1.500000*%
%ADD18O,1.700000X1.700000*%
%ADD19R,1.700000X1.700000*%
G04 APERTURE END LIST*
D10*
%TO.C,D45*%
X309340000Y-68700000D03*
D11*
X309340000Y-58540000D03*
%TD*%
D10*
%TO.C,D30*%
X308650000Y-49810000D03*
D11*
X308650000Y-39650000D03*
%TD*%
D10*
%TO.C,D21*%
X113430000Y-50420000D03*
D11*
X113430000Y-40260000D03*
%TD*%
D12*
%TO.C,SW47*%
X47663690Y-83430000D03*
D13*
X45123690Y-78350000D03*
D14*
X42583690Y-83430000D03*
D13*
X38773690Y-80890000D03*
D12*
X37503690Y-83430000D03*
%TD*%
%TO.C,SW36*%
X119161190Y-64350000D03*
D13*
X116621190Y-59270000D03*
D14*
X114081190Y-64350000D03*
D13*
X110271190Y-61810000D03*
D12*
X109001190Y-64350000D03*
%TD*%
%TO.C,SW24*%
X166796190Y-45300000D03*
D13*
X164256190Y-40220000D03*
D14*
X161716190Y-45300000D03*
D13*
X157906190Y-42760000D03*
D12*
X156636190Y-45300000D03*
%TD*%
D10*
%TO.C,D20*%
X94480000Y-50340000D03*
D11*
X94480000Y-40180000D03*
%TD*%
D10*
%TO.C,D37*%
X142060000Y-69420000D03*
D11*
X142060000Y-59260000D03*
%TD*%
D10*
%TO.C,D8*%
X161030000Y-17040000D03*
D11*
X161030000Y-6880000D03*
%TD*%
D12*
%TO.C,SW71*%
X254829940Y-102480000D03*
D13*
X252289940Y-97400000D03*
D14*
X249749940Y-102480000D03*
D13*
X245939940Y-99940000D03*
D12*
X244669940Y-102480000D03*
%TD*%
%TO.C,SW8*%
X157246190Y-11940000D03*
D13*
X154706190Y-6860000D03*
D14*
X152166190Y-11940000D03*
D13*
X148356190Y-9400000D03*
D12*
X147086190Y-11940000D03*
%TD*%
D10*
%TO.C,D12*%
X242100000Y-17040000D03*
D11*
X242100000Y-6880000D03*
%TD*%
D12*
%TO.C,SW15*%
X304891190Y-11935000D03*
D13*
X302351190Y-6855000D03*
D14*
X299811190Y-11935000D03*
D13*
X296001190Y-9395000D03*
D12*
X294731190Y-11935000D03*
%TD*%
%TO.C,SW56*%
X219113690Y-83430000D03*
D13*
X216573690Y-78350000D03*
D14*
X214033690Y-83430000D03*
D13*
X210223690Y-80890000D03*
D12*
X208953690Y-83430000D03*
%TD*%
%TO.C,SW4*%
X76281190Y-11945000D03*
D13*
X73741190Y-6865000D03*
D14*
X71201190Y-11945000D03*
D13*
X67391190Y-9405000D03*
D12*
X66121190Y-11945000D03*
%TD*%
D10*
%TO.C,D18*%
X56351190Y-50120000D03*
D11*
X56351190Y-39960000D03*
%TD*%
D12*
%TO.C,SW27*%
X223946190Y-45300000D03*
D13*
X221406190Y-40220000D03*
D14*
X218866190Y-45300000D03*
D13*
X215056190Y-42760000D03*
D12*
X213786190Y-45300000D03*
%TD*%
D10*
%TO.C,D80*%
X270530000Y-131380000D03*
D11*
X270530000Y-121220000D03*
%TD*%
D10*
%TO.C,D72*%
X290233690Y-112320000D03*
D11*
X290233690Y-102160000D03*
%TD*%
D10*
%TO.C,D5*%
X99190000Y-17000000D03*
D11*
X99190000Y-6840000D03*
%TD*%
D10*
%TO.C,D40*%
X199141190Y-69340000D03*
D11*
X199141190Y-59180000D03*
%TD*%
D10*
%TO.C,D75*%
X68310000Y-126580000D03*
D11*
X68310000Y-116420000D03*
%TD*%
D10*
%TO.C,D47*%
X51440000Y-88530000D03*
D11*
X51440000Y-78370000D03*
%TD*%
D10*
%TO.C,D55*%
X203830000Y-88480000D03*
D11*
X203830000Y-78320000D03*
%TD*%
D12*
%TO.C,SW31*%
X19088690Y-64380000D03*
D13*
X16548690Y-59300000D03*
D14*
X14008690Y-64380000D03*
D13*
X10198690Y-61840000D03*
D12*
X8928690Y-64380000D03*
%TD*%
%TO.C,SW62*%
X76236190Y-102480000D03*
D13*
X73696190Y-97400000D03*
D14*
X71156190Y-102480000D03*
D13*
X67346190Y-99940000D03*
D12*
X66076190Y-102480000D03*
%TD*%
D10*
%TO.C,D35*%
X103881190Y-69300000D03*
D11*
X103881190Y-59140000D03*
%TD*%
D12*
%TO.C,SW77*%
X204823690Y-121530000D03*
D13*
X202283690Y-116450000D03*
D14*
X199743690Y-121530000D03*
D13*
X195933690Y-118990000D03*
D12*
X194663690Y-121530000D03*
%TD*%
D10*
%TO.C,D52*%
X146780000Y-88560000D03*
D11*
X146780000Y-78400000D03*
%TD*%
D12*
%TO.C,SW7*%
X138196190Y-11940000D03*
D13*
X135656190Y-6860000D03*
D14*
X133116190Y-11940000D03*
D13*
X129306190Y-9400000D03*
D12*
X128036190Y-11940000D03*
%TD*%
D10*
%TO.C,D2*%
X41980000Y-17070000D03*
D11*
X41980000Y-6910000D03*
%TD*%
D12*
%TO.C,SW51*%
X123863690Y-83430000D03*
D13*
X121323690Y-78350000D03*
D14*
X118783690Y-83430000D03*
D13*
X114973690Y-80890000D03*
D12*
X113703690Y-83430000D03*
%TD*%
%TO.C,SW73*%
X16707440Y-121530000D03*
D13*
X14167440Y-116450000D03*
D14*
X11627440Y-121530000D03*
D13*
X7817440Y-118990000D03*
D12*
X6547440Y-121530000D03*
%TD*%
%TO.C,SW2*%
X38181190Y-11945000D03*
D13*
X35641190Y-6865000D03*
D14*
X33101190Y-11945000D03*
D13*
X29291190Y-9405000D03*
D12*
X28021190Y-11945000D03*
%TD*%
%TO.C,SW9*%
X176296190Y-11940000D03*
D13*
X173756190Y-6860000D03*
D14*
X171216190Y-11940000D03*
D13*
X167406190Y-9400000D03*
D12*
X166136190Y-11940000D03*
%TD*%
%TO.C,SW40*%
X195371190Y-64350000D03*
D13*
X192831190Y-59270000D03*
D14*
X190291190Y-64350000D03*
D13*
X186481190Y-61810000D03*
D12*
X185211190Y-64350000D03*
%TD*%
D10*
%TO.C,D28*%
X246731190Y-50420000D03*
D11*
X246731190Y-40260000D03*
%TD*%
D12*
%TO.C,SW20*%
X90616190Y-45290000D03*
D13*
X88076190Y-40210000D03*
D14*
X85536190Y-45290000D03*
D13*
X81726190Y-42750000D03*
D12*
X80456190Y-45290000D03*
%TD*%
%TO.C,SW81*%
X285788690Y-126290000D03*
D13*
X283248690Y-121210000D03*
D14*
X280708690Y-126290000D03*
D13*
X276898690Y-123750000D03*
D12*
X275628690Y-126290000D03*
%TD*%
%TO.C,SW41*%
X214421190Y-64350000D03*
D13*
X211881190Y-59270000D03*
D14*
X209341190Y-64350000D03*
D13*
X205531190Y-61810000D03*
D12*
X204261190Y-64350000D03*
%TD*%
%TO.C,SW16*%
X14416190Y-45290000D03*
D13*
X11876190Y-40210000D03*
D14*
X9336190Y-45290000D03*
D13*
X5526190Y-42750000D03*
D12*
X4256190Y-45290000D03*
%TD*%
D10*
%TO.C,D77*%
X208670000Y-126580000D03*
D11*
X208670000Y-116420000D03*
%TD*%
D12*
%TO.C,SW70*%
X228636190Y-102480000D03*
D13*
X226096190Y-97400000D03*
D14*
X223556190Y-102480000D03*
D13*
X219746190Y-99940000D03*
D12*
X218476190Y-102480000D03*
%TD*%
%TO.C,SW25*%
X185846190Y-45300000D03*
D13*
X183306190Y-40220000D03*
D14*
X180766190Y-45300000D03*
D13*
X176956190Y-42760000D03*
D12*
X175686190Y-45300000D03*
%TD*%
%TO.C,SW80*%
X266738690Y-126290000D03*
D13*
X264198690Y-121210000D03*
D14*
X261658690Y-126290000D03*
D13*
X257848690Y-123750000D03*
D12*
X256578690Y-126290000D03*
%TD*%
%TO.C,SW30*%
X304843690Y-45325000D03*
D13*
X302303690Y-40245000D03*
D14*
X299763690Y-45325000D03*
D13*
X295953690Y-42785000D03*
D12*
X294683690Y-45325000D03*
%TD*%
D10*
%TO.C,D29*%
X285560000Y-49380000D03*
D11*
X285560000Y-39220000D03*
%TD*%
D14*
%TO.C,SW29*%
X278429190Y-53555000D03*
D15*
X278429190Y-38315000D03*
D12*
X271571190Y-45300000D03*
D13*
X269031190Y-40220000D03*
D14*
X266491190Y-45300000D03*
D13*
X262681190Y-42760000D03*
D12*
X261411190Y-45300000D03*
D14*
X254553190Y-53555000D03*
D15*
X254553190Y-38315000D03*
%TD*%
D10*
%TO.C,D54*%
X184770000Y-88540000D03*
D11*
X184770000Y-78380000D03*
%TD*%
D12*
%TO.C,SW12*%
X238211190Y-11935000D03*
D13*
X235671190Y-6855000D03*
D14*
X233131190Y-11935000D03*
D13*
X229321190Y-9395000D03*
D12*
X228051190Y-11935000D03*
%TD*%
%TO.C,SW50*%
X104813690Y-83430000D03*
D13*
X102273690Y-78350000D03*
D14*
X99733690Y-83430000D03*
D13*
X95923690Y-80890000D03*
D12*
X94653690Y-83430000D03*
%TD*%
D10*
%TO.C,D65*%
X137210000Y-107590000D03*
D11*
X137210000Y-97430000D03*
%TD*%
D10*
%TO.C,D46*%
X25301190Y-88030000D03*
D11*
X25301190Y-77870000D03*
%TD*%
D12*
%TO.C,SW82*%
X304838690Y-126290000D03*
D13*
X302298690Y-121210000D03*
D14*
X299758690Y-126290000D03*
D13*
X295948690Y-123750000D03*
D12*
X294678690Y-126290000D03*
%TD*%
D10*
%TO.C,D78*%
X227680000Y-126550000D03*
D11*
X227680000Y-116390000D03*
%TD*%
D10*
%TO.C,D71*%
X258670000Y-107530000D03*
D11*
X258670000Y-97370000D03*
%TD*%
D12*
%TO.C,SW38*%
X157271190Y-64350000D03*
D13*
X154731190Y-59270000D03*
D14*
X152191190Y-64350000D03*
D13*
X148381190Y-61810000D03*
D12*
X147111190Y-64350000D03*
%TD*%
D10*
%TO.C,D36*%
X122920000Y-68960000D03*
D11*
X122920000Y-58800000D03*
%TD*%
D10*
%TO.C,D22*%
X132531190Y-49840000D03*
D11*
X132531190Y-39680000D03*
%TD*%
D12*
%TO.C,SW42*%
X233471190Y-64350000D03*
D13*
X230931190Y-59270000D03*
D14*
X228391190Y-64350000D03*
D13*
X224581190Y-61810000D03*
D12*
X223311190Y-64350000D03*
%TD*%
D10*
%TO.C,D15*%
X308740000Y-17030000D03*
D11*
X308740000Y-6870000D03*
%TD*%
D12*
%TO.C,SW78*%
X223873690Y-121530000D03*
D13*
X221333690Y-116450000D03*
D14*
X218793690Y-121530000D03*
D13*
X214983690Y-118990000D03*
D12*
X213713690Y-121530000D03*
%TD*%
D10*
%TO.C,D11*%
X222990000Y-17030000D03*
D11*
X222990000Y-6870000D03*
%TD*%
D12*
%TO.C,SW32*%
X42901190Y-64380000D03*
D13*
X40361190Y-59300000D03*
D14*
X37821190Y-64380000D03*
D13*
X34011190Y-61840000D03*
D12*
X32741190Y-64380000D03*
%TD*%
%TO.C,SW44*%
X276333690Y-64350000D03*
D13*
X273793690Y-59270000D03*
D14*
X271253690Y-64350000D03*
D13*
X267443690Y-61810000D03*
D12*
X266173690Y-64350000D03*
%TD*%
%TO.C,SW18*%
X52506190Y-45290000D03*
D13*
X49966190Y-40210000D03*
D14*
X47426190Y-45290000D03*
D13*
X43616190Y-42750000D03*
D12*
X42346190Y-45290000D03*
%TD*%
D10*
%TO.C,D41*%
X218161190Y-69430000D03*
D11*
X218161190Y-59270000D03*
%TD*%
D10*
%TO.C,D38*%
X161110000Y-69440000D03*
D11*
X161110000Y-59280000D03*
%TD*%
D12*
%TO.C,SW43*%
X252521190Y-64350000D03*
D13*
X249981190Y-59270000D03*
D14*
X247441190Y-64350000D03*
D13*
X243631190Y-61810000D03*
D12*
X242361190Y-64350000D03*
%TD*%
%TO.C,SW54*%
X181013690Y-83430000D03*
D13*
X178473690Y-78350000D03*
D14*
X175933690Y-83430000D03*
D13*
X172123690Y-80890000D03*
D12*
X170853690Y-83430000D03*
%TD*%
%TO.C,SW64*%
X114336190Y-102480000D03*
D13*
X111796190Y-97400000D03*
D14*
X109256190Y-102480000D03*
D13*
X105446190Y-99940000D03*
D12*
X104176190Y-102480000D03*
%TD*%
D10*
%TO.C,D19*%
X75381190Y-49770000D03*
D11*
X75381190Y-39610000D03*
%TD*%
D12*
%TO.C,SW49*%
X85763690Y-83430000D03*
D13*
X83223690Y-78350000D03*
D14*
X80683690Y-83430000D03*
D13*
X76873690Y-80890000D03*
D12*
X75603690Y-83430000D03*
%TD*%
D10*
%TO.C,D69*%
X213360000Y-107570000D03*
D11*
X213360000Y-97410000D03*
%TD*%
D12*
%TO.C,SW79*%
X242923690Y-121530000D03*
D13*
X240383690Y-116450000D03*
D14*
X237843690Y-121530000D03*
D13*
X234033690Y-118990000D03*
D12*
X232763690Y-121530000D03*
%TD*%
%TO.C,SW37*%
X138221190Y-64350000D03*
D13*
X135681190Y-59270000D03*
D14*
X133141190Y-64350000D03*
D13*
X129331190Y-61810000D03*
D12*
X128061190Y-64350000D03*
%TD*%
%TO.C,SW63*%
X95286190Y-102480000D03*
D13*
X92746190Y-97400000D03*
D14*
X90206190Y-102480000D03*
D13*
X86396190Y-99940000D03*
D12*
X85126190Y-102480000D03*
%TD*%
D10*
%TO.C,D6*%
X122980000Y-16990000D03*
D11*
X122980000Y-6830000D03*
%TD*%
D10*
%TO.C,D63*%
X99110000Y-107540000D03*
D11*
X99110000Y-97380000D03*
%TD*%
D10*
%TO.C,D73*%
X20670000Y-126640000D03*
D11*
X20670000Y-116480000D03*
%TD*%
D10*
%TO.C,D76*%
X139830000Y-126580000D03*
D11*
X139830000Y-116420000D03*
%TD*%
D12*
%TO.C,SW6*%
X119146190Y-11940000D03*
D13*
X116606190Y-6860000D03*
D14*
X114066190Y-11940000D03*
D13*
X110256190Y-9400000D03*
D12*
X108986190Y-11940000D03*
%TD*%
D10*
%TO.C,D17*%
X37290000Y-50450000D03*
D11*
X37290000Y-40290000D03*
%TD*%
D12*
%TO.C,SW34*%
X81021190Y-64370000D03*
D13*
X78481190Y-59290000D03*
D14*
X75941190Y-64370000D03*
D13*
X72131190Y-61830000D03*
D12*
X70861190Y-64370000D03*
%TD*%
D10*
%TO.C,D79*%
X246830000Y-126620000D03*
D11*
X246830000Y-116460000D03*
%TD*%
D10*
%TO.C,D10*%
X203970000Y-17030000D03*
D11*
X203970000Y-6870000D03*
%TD*%
D10*
%TO.C,D32*%
X46760000Y-69400000D03*
D11*
X46760000Y-59240000D03*
%TD*%
D12*
%TO.C,SW57*%
X238163690Y-83430000D03*
D13*
X235623690Y-78350000D03*
D14*
X233083690Y-83430000D03*
D13*
X229273690Y-80890000D03*
D12*
X228003690Y-83430000D03*
%TD*%
D10*
%TO.C,D16*%
X18250000Y-50300000D03*
D11*
X18250000Y-40140000D03*
%TD*%
D12*
%TO.C,SW75*%
X64332440Y-121530000D03*
D13*
X61792440Y-116450000D03*
D14*
X59252440Y-121530000D03*
D13*
X55442440Y-118990000D03*
D12*
X54172440Y-121530000D03*
%TD*%
D10*
%TO.C,D24*%
X170640000Y-50390000D03*
D11*
X170640000Y-40230000D03*
%TD*%
D12*
%TO.C,SW26*%
X204896190Y-45300000D03*
D13*
X202356190Y-40220000D03*
D14*
X199816190Y-45300000D03*
D13*
X196006190Y-42760000D03*
D12*
X194736190Y-45300000D03*
%TD*%
D10*
%TO.C,D48*%
X70600000Y-88500000D03*
D11*
X70600000Y-78340000D03*
%TD*%
D12*
%TO.C,SW19*%
X71566190Y-45290000D03*
D13*
X69026190Y-40210000D03*
D14*
X66486190Y-45290000D03*
D13*
X62676190Y-42750000D03*
D12*
X61406190Y-45290000D03*
%TD*%
%TO.C,SW11*%
X219161190Y-11935000D03*
D13*
X216621190Y-6855000D03*
D14*
X214081190Y-11935000D03*
D13*
X210271190Y-9395000D03*
D12*
X209001190Y-11935000D03*
%TD*%
%TO.C,SW45*%
X304843690Y-64375000D03*
D13*
X302303690Y-59295000D03*
D14*
X299763690Y-64375000D03*
D13*
X295953690Y-61835000D03*
D12*
X294683690Y-64375000D03*
%TD*%
%TO.C,SW28*%
X242996190Y-45300000D03*
D13*
X240456190Y-40220000D03*
D14*
X237916190Y-45300000D03*
D13*
X234106190Y-42760000D03*
D12*
X232836190Y-45300000D03*
%TD*%
D10*
%TO.C,D26*%
X208750000Y-50360000D03*
D11*
X208750000Y-40200000D03*
%TD*%
D14*
%TO.C,SW60*%
X33090440Y-110735000D03*
D15*
X33090440Y-95495000D03*
D12*
X26232440Y-102480000D03*
D13*
X23692440Y-97400000D03*
D14*
X21152440Y-102480000D03*
D13*
X17342440Y-99940000D03*
D12*
X16072440Y-102480000D03*
D14*
X9214440Y-110735000D03*
D15*
X9214440Y-95495000D03*
%TD*%
D10*
%TO.C,D59*%
X308640000Y-88490000D03*
D11*
X308640000Y-78330000D03*
%TD*%
D12*
%TO.C,SW21*%
X109666190Y-45290000D03*
D13*
X107126190Y-40210000D03*
D14*
X104586190Y-45290000D03*
D13*
X100776190Y-42750000D03*
D12*
X99506190Y-45290000D03*
%TD*%
%TO.C,SW35*%
X100091190Y-64360000D03*
D13*
X97551190Y-59280000D03*
D14*
X95011190Y-64360000D03*
D13*
X91201190Y-61820000D03*
D12*
X89931190Y-64360000D03*
%TD*%
D10*
%TO.C,D9*%
X180200000Y-17000000D03*
D11*
X180200000Y-6840000D03*
%TD*%
D12*
%TO.C,SW66*%
X152436190Y-102480000D03*
D13*
X149896190Y-97400000D03*
D14*
X147356190Y-102480000D03*
D13*
X143546190Y-99940000D03*
D12*
X142276190Y-102480000D03*
%TD*%
D10*
%TO.C,D81*%
X289620000Y-131340000D03*
D11*
X289620000Y-121180000D03*
%TD*%
D10*
%TO.C,D7*%
X142040000Y-16950000D03*
D11*
X142040000Y-6790000D03*
%TD*%
D10*
%TO.C,D33*%
X65820000Y-69430000D03*
D11*
X65820000Y-59270000D03*
%TD*%
D10*
%TO.C,D43*%
X256360000Y-69390000D03*
D11*
X256360000Y-59230000D03*
%TD*%
D12*
%TO.C,SW33*%
X61951190Y-64380000D03*
D13*
X59411190Y-59300000D03*
D14*
X56871190Y-64380000D03*
D13*
X53061190Y-61840000D03*
D12*
X51791190Y-64380000D03*
%TD*%
D10*
%TO.C,D3*%
X61050000Y-17070000D03*
D11*
X61050000Y-6910000D03*
%TD*%
D12*
%TO.C,SW67*%
X171486190Y-102480000D03*
D13*
X168946190Y-97400000D03*
D14*
X166406190Y-102480000D03*
D13*
X162596190Y-99940000D03*
D12*
X161326190Y-102480000D03*
%TD*%
%TO.C,SW55*%
X200063690Y-83430000D03*
D13*
X197523690Y-78350000D03*
D14*
X194983690Y-83430000D03*
D13*
X191173690Y-80890000D03*
D12*
X189903690Y-83430000D03*
%TD*%
D10*
%TO.C,D57*%
X241911190Y-88520000D03*
D11*
X241911190Y-78360000D03*
%TD*%
D10*
%TO.C,D67*%
X175260000Y-107510000D03*
D11*
X175260000Y-97350000D03*
%TD*%
D14*
%TO.C,SW58*%
X275977940Y-91685000D03*
D15*
X275977940Y-76445000D03*
D12*
X269119940Y-83430000D03*
D13*
X266579940Y-78350000D03*
D14*
X264039940Y-83430000D03*
D13*
X260229940Y-80890000D03*
D12*
X258959940Y-83430000D03*
D14*
X252101940Y-91685000D03*
D15*
X252101940Y-76445000D03*
%TD*%
D10*
%TO.C,D27*%
X227820000Y-50360000D03*
D11*
X227820000Y-40200000D03*
%TD*%
D10*
%TO.C,D82*%
X308720000Y-131400000D03*
D11*
X308720000Y-121240000D03*
%TD*%
D10*
%TO.C,D50*%
X108700000Y-88500000D03*
D11*
X108700000Y-78340000D03*
%TD*%
D12*
%TO.C,SW10*%
X200111190Y-11935000D03*
D13*
X197571190Y-6855000D03*
D14*
X195031190Y-11935000D03*
D13*
X191221190Y-9395000D03*
D12*
X189951190Y-11935000D03*
%TD*%
D10*
%TO.C,D74*%
X44380000Y-126620000D03*
D11*
X44380000Y-116460000D03*
%TD*%
D10*
%TO.C,D70*%
X232470000Y-107540000D03*
D11*
X232470000Y-97380000D03*
%TD*%
D12*
%TO.C,SW22*%
X128706190Y-45300000D03*
D13*
X126166190Y-40220000D03*
D14*
X123626190Y-45300000D03*
D13*
X119816190Y-42760000D03*
D12*
X118546190Y-45300000D03*
%TD*%
%TO.C,SW13*%
X257261190Y-11935000D03*
D13*
X254721190Y-6855000D03*
D14*
X252181190Y-11935000D03*
D13*
X248371190Y-9395000D03*
D12*
X247101190Y-11935000D03*
%TD*%
D14*
%TO.C,SW76*%
X180687440Y-129785000D03*
D15*
X180687440Y-114545000D03*
D12*
X135767440Y-121530000D03*
D13*
X133227440Y-116450000D03*
D14*
X130687440Y-121530000D03*
D13*
X126877440Y-118990000D03*
D12*
X125607440Y-121530000D03*
D14*
X80687440Y-129785000D03*
D15*
X80687440Y-114545000D03*
%TD*%
D10*
%TO.C,D61*%
X61050000Y-107570000D03*
D11*
X61050000Y-97410000D03*
%TD*%
D12*
%TO.C,SW53*%
X161963690Y-83430000D03*
D13*
X159423690Y-78350000D03*
D14*
X156883690Y-83430000D03*
D13*
X153073690Y-80890000D03*
D12*
X151803690Y-83430000D03*
%TD*%
%TO.C,SW3*%
X57231190Y-11945000D03*
D13*
X54691190Y-6865000D03*
D14*
X52151190Y-11945000D03*
D13*
X48341190Y-9405000D03*
D12*
X47071190Y-11945000D03*
%TD*%
D10*
%TO.C,D13*%
X261160000Y-17020000D03*
D11*
X261160000Y-6860000D03*
%TD*%
D10*
%TO.C,D42*%
X237280000Y-69450000D03*
D11*
X237280000Y-59290000D03*
%TD*%
D10*
%TO.C,D31*%
X22940000Y-69420000D03*
D11*
X22940000Y-59260000D03*
%TD*%
D12*
%TO.C,SW59*%
X304843690Y-83425000D03*
D13*
X302303690Y-78345000D03*
D14*
X299763690Y-83425000D03*
D13*
X295953690Y-80885000D03*
D12*
X294683690Y-83425000D03*
%TD*%
D10*
%TO.C,D62*%
X80050000Y-107570000D03*
D11*
X80050000Y-97410000D03*
%TD*%
D10*
%TO.C,D66*%
X156280000Y-107570000D03*
D11*
X156280000Y-97410000D03*
%TD*%
D12*
%TO.C,SW74*%
X40519940Y-121530000D03*
D13*
X37979940Y-116450000D03*
D14*
X35439940Y-121530000D03*
D13*
X31629940Y-118990000D03*
D12*
X30359940Y-121530000D03*
%TD*%
%TO.C,SW14*%
X281076190Y-11940000D03*
D13*
X278536190Y-6860000D03*
D14*
X275996190Y-11940000D03*
D13*
X272186190Y-9400000D03*
D12*
X270916190Y-11940000D03*
%TD*%
D10*
%TO.C,D56*%
X222971190Y-88060000D03*
D11*
X222971190Y-77900000D03*
%TD*%
D10*
%TO.C,D58*%
X272920000Y-88520000D03*
D11*
X272920000Y-78360000D03*
%TD*%
D10*
%TO.C,D44*%
X280230000Y-69370000D03*
D11*
X280230000Y-59210000D03*
%TD*%
D10*
%TO.C,D25*%
X189710000Y-50430000D03*
D11*
X189710000Y-40270000D03*
%TD*%
D12*
%TO.C,SW46*%
X21469940Y-83430000D03*
D13*
X18929940Y-78350000D03*
D14*
X16389940Y-83430000D03*
D13*
X12579940Y-80890000D03*
D12*
X11309940Y-83430000D03*
%TD*%
D10*
%TO.C,D14*%
X284970000Y-17000000D03*
D11*
X284970000Y-6840000D03*
%TD*%
D12*
%TO.C,SW5*%
X95331190Y-11945000D03*
D13*
X92791190Y-6865000D03*
D14*
X90251190Y-11945000D03*
D13*
X86441190Y-9405000D03*
D12*
X85171190Y-11945000D03*
%TD*%
%TO.C,SW23*%
X147746190Y-45300000D03*
D13*
X145206190Y-40220000D03*
D14*
X142666190Y-45300000D03*
D13*
X138856190Y-42760000D03*
D12*
X137586190Y-45300000D03*
%TD*%
%TO.C,SW65*%
X133386190Y-102480000D03*
D13*
X130846190Y-97400000D03*
D14*
X128306190Y-102480000D03*
D13*
X124496190Y-99940000D03*
D12*
X123226190Y-102480000D03*
%TD*%
%TO.C,SW69*%
X209586190Y-102480000D03*
D13*
X207046190Y-97400000D03*
D14*
X204506190Y-102480000D03*
D13*
X200696190Y-99940000D03*
D12*
X199426190Y-102480000D03*
%TD*%
D10*
%TO.C,D34*%
X84790000Y-69440000D03*
D11*
X84790000Y-59280000D03*
%TD*%
D12*
%TO.C,SW72*%
X285788690Y-107240000D03*
D13*
X283248690Y-102160000D03*
D14*
X280708690Y-107240000D03*
D13*
X276898690Y-104700000D03*
D12*
X275628690Y-107240000D03*
%TD*%
D10*
%TO.C,D49*%
X89580000Y-88350000D03*
D11*
X89580000Y-78190000D03*
%TD*%
D10*
%TO.C,D1*%
X19806190Y-17200000D03*
D11*
X19806190Y-7040000D03*
%TD*%
D10*
%TO.C,D64*%
X118130000Y-107550000D03*
D11*
X118130000Y-97390000D03*
%TD*%
D12*
%TO.C,SW68*%
X190536190Y-102480000D03*
D13*
X187996190Y-97400000D03*
D14*
X185456190Y-102480000D03*
D13*
X181646190Y-99940000D03*
D12*
X180376190Y-102480000D03*
%TD*%
%TO.C,SW52*%
X142913690Y-83430000D03*
D13*
X140373690Y-78350000D03*
D14*
X137833690Y-83430000D03*
D13*
X134023690Y-80890000D03*
D12*
X132753690Y-83430000D03*
%TD*%
%TO.C,SW1*%
X14421190Y-11955000D03*
D13*
X11881190Y-6875000D03*
D14*
X9341190Y-11955000D03*
D13*
X5531190Y-9415000D03*
D12*
X4261190Y-11955000D03*
%TD*%
D10*
%TO.C,D68*%
X194400000Y-107650000D03*
D11*
X194400000Y-97490000D03*
%TD*%
D12*
%TO.C,SW48*%
X66713690Y-83430000D03*
D13*
X64173690Y-78350000D03*
D14*
X61633690Y-83430000D03*
D13*
X57823690Y-80890000D03*
D12*
X56553690Y-83430000D03*
%TD*%
%TO.C,SW39*%
X176321190Y-64350000D03*
D13*
X173781190Y-59270000D03*
D14*
X171241190Y-64350000D03*
D13*
X167431190Y-61810000D03*
D12*
X166161190Y-64350000D03*
%TD*%
%TO.C,SW17*%
X33456190Y-45290000D03*
D13*
X30916190Y-40210000D03*
D14*
X28376190Y-45290000D03*
D13*
X24566190Y-42750000D03*
D12*
X23296190Y-45290000D03*
%TD*%
D16*
%TO.C,U1*%
X324826190Y-5930000D03*
D17*
X324526190Y-8960000D03*
X319676190Y-8960000D03*
D16*
X319376190Y-5930000D03*
D18*
X330991190Y-5800000D03*
X330991190Y-8340000D03*
D19*
X330991190Y-10880000D03*
D18*
X330991190Y-13420000D03*
X330991190Y-15960000D03*
X330991190Y-18500000D03*
X330991190Y-21040000D03*
D19*
X330991190Y-23580000D03*
D18*
X330991190Y-26120000D03*
X330991190Y-28660000D03*
X330991190Y-31200000D03*
X330991190Y-33740000D03*
D19*
X330991190Y-36280000D03*
D18*
X330991190Y-38820000D03*
X330991190Y-41360000D03*
X330991190Y-43900000D03*
X330991190Y-46440000D03*
D19*
X330991190Y-48980000D03*
D18*
X330991190Y-51520000D03*
X330991190Y-54060000D03*
X313211190Y-54060000D03*
X313211190Y-51520000D03*
D19*
X313211190Y-48980000D03*
D18*
X313211190Y-46440000D03*
X313211190Y-43900000D03*
X313211190Y-41360000D03*
X313211190Y-38820000D03*
D19*
X313211190Y-36280000D03*
D18*
X313211190Y-33740000D03*
X313211190Y-31200000D03*
X313211190Y-28660000D03*
X313211190Y-26120000D03*
D19*
X313211190Y-23580000D03*
D18*
X313211190Y-21040000D03*
X313211190Y-18500000D03*
X313211190Y-15960000D03*
X313211190Y-13420000D03*
D19*
X313211190Y-10880000D03*
D18*
X313211190Y-8340000D03*
X313211190Y-5800000D03*
X324641190Y-53830000D03*
D19*
X322101190Y-53830000D03*
D18*
X319561190Y-53830000D03*
%TD*%
D10*
%TO.C,D4*%
X80130000Y-17000000D03*
D11*
X80130000Y-6840000D03*
%TD*%
D10*
%TO.C,D53*%
X165790000Y-88540000D03*
D11*
X165790000Y-78380000D03*
%TD*%
D10*
%TO.C,D23*%
X151580000Y-50380000D03*
D11*
X151580000Y-40220000D03*
%TD*%
D10*
%TO.C,D51*%
X127690000Y-88550000D03*
D11*
X127690000Y-78390000D03*
%TD*%
D10*
%TO.C,D39*%
X180190000Y-68960000D03*
D11*
X180190000Y-58800000D03*
%TD*%
D12*
%TO.C,SW61*%
X57206190Y-102460000D03*
D13*
X54666190Y-97380000D03*
D14*
X52126190Y-102460000D03*
D13*
X48316190Y-99920000D03*
D12*
X47046190Y-102460000D03*
%TD*%
D10*
%TO.C,D60*%
X30020000Y-107560000D03*
D11*
X30020000Y-97400000D03*
%TD*%
M02*
