M48
; DRILL file {KiCad 8.0.7} date 2025-07-05T17:29:02-0700
; FORMAT={-:-/ absolute / metric / decimal}
; #@! TF.CreationDate,2025-07-05T17:29:02-07:00
; #@! TF.GenerationSoftware,Kicad,Pcbnew,8.0.7
; #@! TF.FileFunction,Plated,1,2,PTH
FMAT,2
METRIC
; #@! TA.AperFunction,Plated,PTH,ViaDrill
T1C0.300
; #@! TA.AperFunction,Plated,PTH,ComponentDrill
T2C1.020
; #@! TA.AperFunction,Plated,PTH,ComponentDrill
T3C1.100
%
G90
G05
T1
X6.924Y-73.6
X35.641Y-72.0
X49.341Y-70.8
X71.041Y-67.0
X84.491Y-56.35
X107.141Y-54.7
X118.241Y-54.0
X135.581Y-52.285
X154.631Y-52.285
X187.946Y-28.495
X206.996Y-28.4
X226.046Y-26.395
X245.096Y-28.495
X268.911Y-33.255
T2
X313.211Y-5.8
X313.211Y-8.34
X313.211Y-10.88
X313.211Y-13.42
X313.211Y-15.96
X313.211Y-18.5
X313.211Y-21.04
X313.211Y-23.58
X313.211Y-26.12
X313.211Y-28.66
X313.211Y-31.2
X313.211Y-33.74
X313.211Y-36.28
X313.211Y-38.82
X313.211Y-41.36
X313.211Y-43.9
X313.211Y-46.44
X313.211Y-48.98
X313.211Y-51.52
X313.211Y-54.06
X319.561Y-53.83
X322.101Y-53.83
X324.641Y-53.83
X330.991Y-5.8
X330.991Y-8.34
X330.991Y-10.88
X330.991Y-13.42
X330.991Y-15.96
X330.991Y-18.5
X330.991Y-21.04
X330.991Y-23.58
X330.991Y-26.12
X330.991Y-28.66
X330.991Y-31.2
X330.991Y-33.74
X330.991Y-36.28
X330.991Y-38.82
X330.991Y-41.36
X330.991Y-43.9
X330.991Y-46.44
X330.991Y-48.98
X330.991Y-51.52
X330.991Y-54.06
T3
X18.25Y-40.14
X18.25Y-50.3
X19.806Y-7.04
X19.806Y-17.2
X20.67Y-116.48
X20.67Y-126.64
X22.94Y-59.26
X22.94Y-69.42
X25.301Y-77.87
X25.301Y-88.03
X30.02Y-97.4
X30.02Y-107.56
X37.29Y-40.29
X37.29Y-50.45
X41.98Y-6.91
X41.98Y-17.07
X44.38Y-116.46
X44.38Y-126.62
X46.76Y-59.24
X46.76Y-69.4
X51.44Y-78.37
X51.44Y-88.53
X56.351Y-39.96
X56.351Y-50.12
X61.05Y-6.91
X61.05Y-17.07
X61.05Y-97.41
X61.05Y-107.57
X65.82Y-59.27
X65.82Y-69.43
X68.31Y-116.42
X68.31Y-126.58
X70.6Y-78.34
X70.6Y-88.5
X75.381Y-39.61
X75.381Y-49.77
X80.05Y-97.41
X80.05Y-107.57
X80.13Y-6.84
X80.13Y-17.0
X84.79Y-59.28
X84.79Y-69.44
X89.58Y-78.19
X89.58Y-88.35
X94.48Y-40.18
X94.48Y-50.34
X99.11Y-97.38
X99.11Y-107.54
X99.19Y-6.84
X99.19Y-17.0
X103.881Y-59.14
X103.881Y-69.3
X108.7Y-78.34
X108.7Y-88.5
X113.43Y-40.26
X113.43Y-50.42
X118.13Y-97.39
X118.13Y-107.55
X122.92Y-58.8
X122.92Y-68.96
X122.98Y-6.83
X122.98Y-16.99
X127.69Y-78.39
X127.69Y-88.55
X132.531Y-39.68
X132.531Y-49.84
X137.21Y-97.43
X137.21Y-107.59
X139.83Y-116.42
X139.83Y-126.58
X142.04Y-6.79
X142.04Y-16.95
X142.06Y-59.26
X142.06Y-69.42
X146.78Y-78.4
X146.78Y-88.56
X151.58Y-40.22
X151.58Y-50.38
X156.28Y-97.41
X156.28Y-107.57
X161.03Y-6.88
X161.03Y-17.04
X161.11Y-59.28
X161.11Y-69.44
X165.79Y-78.38
X165.79Y-88.54
X170.64Y-40.23
X170.64Y-50.39
X175.26Y-97.35
X175.26Y-107.51
X180.19Y-58.8
X180.19Y-68.96
X180.2Y-6.84
X180.2Y-17.0
X184.77Y-78.38
X184.77Y-88.54
X189.71Y-40.27
X189.71Y-50.43
X194.4Y-97.49
X194.4Y-107.65
X199.141Y-59.18
X199.141Y-69.34
X203.83Y-78.32
X203.83Y-88.48
X203.97Y-6.87
X203.97Y-17.03
X208.67Y-116.42
X208.67Y-126.58
X208.75Y-40.2
X208.75Y-50.36
X213.36Y-97.41
X213.36Y-107.57
X218.161Y-59.27
X218.161Y-69.43
X222.971Y-77.9
X222.971Y-88.06
X222.99Y-6.87
X222.99Y-17.03
X227.68Y-116.39
X227.68Y-126.55
X227.82Y-40.2
X227.82Y-50.36
X232.47Y-97.38
X232.47Y-107.54
X237.28Y-59.29
X237.28Y-69.45
X241.911Y-78.36
X241.911Y-88.52
X242.1Y-6.88
X242.1Y-17.04
X246.731Y-40.26
X246.731Y-50.42
X246.83Y-116.46
X246.83Y-126.62
X256.36Y-59.23
X256.36Y-69.39
X258.67Y-97.37
X258.67Y-107.53
X261.16Y-6.86
X261.16Y-17.02
X270.53Y-121.22
X270.53Y-131.38
X272.92Y-78.36
X272.92Y-88.52
X280.23Y-59.21
X280.23Y-69.37
X284.97Y-6.84
X284.97Y-17.0
X285.56Y-39.22
X285.56Y-49.38
X289.62Y-121.18
X289.62Y-131.34
X290.234Y-102.16
X290.234Y-112.32
X308.64Y-78.33
X308.64Y-88.49
X308.65Y-39.65
X308.65Y-49.81
X308.72Y-121.24
X308.72Y-131.4
X308.74Y-6.87
X308.74Y-17.03
X309.34Y-58.54
X309.34Y-68.7
M30
