M48
; DRILL file {KiCad 8.0.7} date 2025-07-05T17:29:02-0700
; FORMAT={-:-/ absolute / metric / decimal}
; #@! TF.CreationDate,2025-07-05T17:29:02-07:00
; #@! TF.GenerationSoftware,Kicad,Pcbnew,8.0.7
; #@! TF.FileFunction,NonPlated,1,2,NPTH
FMAT,2
METRIC
; #@! TA.AperFunction,NonPlated,NPTH,ComponentDrill
T1C1.500
; #@! TA.AperFunction,NonPlated,NPTH,ComponentDrill
T2C1.702
; #@! TA.AperFunction,NonPlated,NPTH,ComponentDrill
T3C1.800
; #@! TA.AperFunction,NonPlated,NPTH,ComponentDrill
T4C3.000
; #@! TA.AperFunction,NonPlated,NPTH,ComponentDrill
T5C3.048
; #@! TA.AperFunction,NonPlated,NPTH,ComponentDrill
T6C3.988
%
G90
G05
T1
X319.676Y-8.96
X324.526Y-8.96
T2
X4.256Y-45.29
X4.261Y-11.955
X6.547Y-121.53
X8.929Y-64.38
X11.31Y-83.43
X14.416Y-45.29
X14.421Y-11.955
X16.072Y-102.48
X16.707Y-121.53
X19.089Y-64.38
X21.47Y-83.43
X23.296Y-45.29
X26.232Y-102.48
X28.021Y-11.945
X30.36Y-121.53
X32.741Y-64.38
X33.456Y-45.29
X37.504Y-83.43
X38.181Y-11.945
X40.52Y-121.53
X42.346Y-45.29
X42.901Y-64.38
X47.046Y-102.46
X47.071Y-11.945
X47.664Y-83.43
X51.791Y-64.38
X52.506Y-45.29
X54.172Y-121.53
X56.554Y-83.43
X57.206Y-102.46
X57.231Y-11.945
X61.406Y-45.29
X61.951Y-64.38
X64.332Y-121.53
X66.076Y-102.48
X66.121Y-11.945
X66.714Y-83.43
X70.861Y-64.37
X71.566Y-45.29
X75.604Y-83.43
X76.236Y-102.48
X76.281Y-11.945
X80.456Y-45.29
X81.021Y-64.37
X85.126Y-102.48
X85.171Y-11.945
X85.764Y-83.43
X89.931Y-64.36
X90.616Y-45.29
X94.654Y-83.43
X95.286Y-102.48
X95.331Y-11.945
X99.506Y-45.29
X100.091Y-64.36
X104.176Y-102.48
X104.814Y-83.43
X108.986Y-11.94
X109.001Y-64.35
X109.666Y-45.29
X113.704Y-83.43
X114.336Y-102.48
X118.546Y-45.3
X119.146Y-11.94
X119.161Y-64.35
X123.226Y-102.48
X123.864Y-83.43
X125.607Y-121.53
X128.036Y-11.94
X128.061Y-64.35
X128.706Y-45.3
X132.754Y-83.43
X133.386Y-102.48
X135.767Y-121.53
X137.586Y-45.3
X138.196Y-11.94
X138.221Y-64.35
X142.276Y-102.48
X142.914Y-83.43
X147.086Y-11.94
X147.111Y-64.35
X147.746Y-45.3
X151.804Y-83.43
X152.436Y-102.48
X156.636Y-45.3
X157.246Y-11.94
X157.271Y-64.35
X161.326Y-102.48
X161.964Y-83.43
X166.136Y-11.94
X166.161Y-64.35
X166.796Y-45.3
X170.854Y-83.43
X171.486Y-102.48
X175.686Y-45.3
X176.296Y-11.94
X176.321Y-64.35
X180.376Y-102.48
X181.014Y-83.43
X185.211Y-64.35
X185.846Y-45.3
X189.904Y-83.43
X189.951Y-11.935
X190.536Y-102.48
X194.664Y-121.53
X194.736Y-45.3
X195.371Y-64.35
X199.426Y-102.48
X200.064Y-83.43
X200.111Y-11.935
X204.261Y-64.35
X204.824Y-121.53
X204.896Y-45.3
X208.954Y-83.43
X209.001Y-11.935
X209.586Y-102.48
X213.714Y-121.53
X213.786Y-45.3
X214.421Y-64.35
X218.476Y-102.48
X219.114Y-83.43
X219.161Y-11.935
X223.311Y-64.35
X223.874Y-121.53
X223.946Y-45.3
X228.004Y-83.43
X228.051Y-11.935
X228.636Y-102.48
X232.764Y-121.53
X232.836Y-45.3
X233.471Y-64.35
X238.164Y-83.43
X238.211Y-11.935
X242.361Y-64.35
X242.924Y-121.53
X242.996Y-45.3
X244.67Y-102.48
X247.101Y-11.935
X252.521Y-64.35
X254.83Y-102.48
X256.579Y-126.29
X257.261Y-11.935
X258.96Y-83.43
X261.411Y-45.3
X266.174Y-64.35
X266.739Y-126.29
X269.12Y-83.43
X270.916Y-11.94
X271.571Y-45.3
X275.629Y-107.24
X275.629Y-126.29
X276.334Y-64.35
X281.076Y-11.94
X285.789Y-107.24
X285.789Y-126.29
X294.679Y-126.29
X294.684Y-45.325
X294.684Y-64.375
X294.684Y-83.425
X294.731Y-11.935
X304.839Y-126.29
X304.844Y-45.325
X304.844Y-64.375
X304.844Y-83.425
X304.891Y-11.935
T3
X319.376Y-5.93
X324.826Y-5.93
T4
X5.526Y-42.75
X5.531Y-9.415
X7.817Y-118.99
X10.199Y-61.84
X11.876Y-40.21
X11.881Y-6.875
X12.58Y-80.89
X14.167Y-116.45
X16.549Y-59.3
X17.342Y-99.94
X18.93Y-78.35
X23.692Y-97.4
X24.566Y-42.75
X29.291Y-9.405
X30.916Y-40.21
X31.63Y-118.99
X34.011Y-61.84
X35.641Y-6.865
X37.98Y-116.45
X38.774Y-80.89
X40.361Y-59.3
X43.616Y-42.75
X45.124Y-78.35
X48.316Y-99.92
X48.341Y-9.405
X49.966Y-40.21
X53.061Y-61.84
X54.666Y-97.38
X54.691Y-6.865
X55.442Y-118.99
X57.824Y-80.89
X59.411Y-59.3
X61.792Y-116.45
X62.676Y-42.75
X64.174Y-78.35
X67.346Y-99.94
X67.391Y-9.405
X69.026Y-40.21
X72.131Y-61.83
X73.696Y-97.4
X73.741Y-6.865
X76.874Y-80.89
X78.481Y-59.29
X81.726Y-42.75
X83.224Y-78.35
X86.396Y-99.94
X86.441Y-9.405
X88.076Y-40.21
X91.201Y-61.82
X92.746Y-97.4
X92.791Y-6.865
X95.924Y-80.89
X97.551Y-59.28
X100.776Y-42.75
X102.274Y-78.35
X105.446Y-99.94
X107.126Y-40.21
X110.256Y-9.4
X110.271Y-61.81
X111.796Y-97.4
X114.974Y-80.89
X116.606Y-6.86
X116.621Y-59.27
X119.816Y-42.76
X121.324Y-78.35
X124.496Y-99.94
X126.166Y-40.22
X126.877Y-118.99
X129.306Y-9.4
X129.331Y-61.81
X130.846Y-97.4
X133.227Y-116.45
X134.024Y-80.89
X135.656Y-6.86
X135.681Y-59.27
X138.856Y-42.76
X140.374Y-78.35
X143.546Y-99.94
X145.206Y-40.22
X148.356Y-9.4
X148.381Y-61.81
X149.896Y-97.4
X153.074Y-80.89
X154.706Y-6.86
X154.731Y-59.27
X157.906Y-42.76
X159.424Y-78.35
X162.596Y-99.94
X164.256Y-40.22
X167.406Y-9.4
X167.431Y-61.81
X168.946Y-97.4
X172.124Y-80.89
X173.756Y-6.86
X173.781Y-59.27
X176.956Y-42.76
X178.474Y-78.35
X181.646Y-99.94
X183.306Y-40.22
X186.481Y-61.81
X187.996Y-97.4
X191.174Y-80.89
X191.221Y-9.395
X192.831Y-59.27
X195.934Y-118.99
X196.006Y-42.76
X197.524Y-78.35
X197.571Y-6.855
X200.696Y-99.94
X202.284Y-116.45
X202.356Y-40.22
X205.531Y-61.81
X207.046Y-97.4
X210.224Y-80.89
X210.271Y-9.395
X211.881Y-59.27
X214.984Y-118.99
X215.056Y-42.76
X216.574Y-78.35
X216.621Y-6.855
X219.746Y-99.94
X221.334Y-116.45
X221.406Y-40.22
X224.581Y-61.81
X226.096Y-97.4
X229.274Y-80.89
X229.321Y-9.395
X230.931Y-59.27
X234.034Y-118.99
X234.106Y-42.76
X235.624Y-78.35
X235.671Y-6.855
X240.384Y-116.45
X240.456Y-40.22
X243.631Y-61.81
X245.94Y-99.94
X248.371Y-9.395
X249.981Y-59.27
X252.29Y-97.4
X254.721Y-6.855
X257.849Y-123.75
X260.23Y-80.89
X262.681Y-42.76
X264.199Y-121.21
X266.58Y-78.35
X267.444Y-61.81
X269.031Y-40.22
X272.186Y-9.4
X273.794Y-59.27
X276.899Y-104.7
X276.899Y-123.75
X278.536Y-6.86
X283.249Y-102.16
X283.249Y-121.21
X295.949Y-123.75
X295.954Y-42.785
X295.954Y-61.835
X295.954Y-80.885
X296.001Y-9.395
X302.299Y-121.21
X302.304Y-40.245
X302.304Y-59.295
X302.304Y-78.345
X302.351Y-6.855
T5
X9.214Y-95.495
X33.09Y-95.495
X80.687Y-114.545
X180.687Y-114.545
X252.102Y-76.445
X254.553Y-38.315
X275.978Y-76.445
X278.429Y-38.315
T6
X9.214Y-110.735
X9.336Y-45.29
X9.341Y-11.955
X11.627Y-121.53
X14.009Y-64.38
X16.39Y-83.43
X21.152Y-102.48
X28.376Y-45.29
X33.09Y-110.735
X33.101Y-11.945
X35.44Y-121.53
X37.821Y-64.38
X42.584Y-83.43
X47.426Y-45.29
X52.126Y-102.46
X52.151Y-11.945
X56.871Y-64.38
X59.252Y-121.53
X61.634Y-83.43
X66.486Y-45.29
X71.156Y-102.48
X71.201Y-11.945
X75.941Y-64.37
X80.684Y-83.43
X80.687Y-129.785
X85.536Y-45.29
X90.206Y-102.48
X90.251Y-11.945
X95.011Y-64.36
X99.734Y-83.43
X104.586Y-45.29
X109.256Y-102.48
X114.066Y-11.94
X114.081Y-64.35
X118.784Y-83.43
X123.626Y-45.3
X128.306Y-102.48
X130.687Y-121.53
X133.116Y-11.94
X133.141Y-64.35
X137.834Y-83.43
X142.666Y-45.3
X147.356Y-102.48
X152.166Y-11.94
X152.191Y-64.35
X156.884Y-83.43
X161.716Y-45.3
X166.406Y-102.48
X171.216Y-11.94
X171.241Y-64.35
X175.934Y-83.43
X180.687Y-129.785
X180.766Y-45.3
X185.456Y-102.48
X190.291Y-64.35
X194.984Y-83.43
X195.031Y-11.935
X199.744Y-121.53
X199.816Y-45.3
X204.506Y-102.48
X209.341Y-64.35
X214.034Y-83.43
X214.081Y-11.935
X218.794Y-121.53
X218.866Y-45.3
X223.556Y-102.48
X228.391Y-64.35
X233.084Y-83.43
X233.131Y-11.935
X237.844Y-121.53
X237.916Y-45.3
X247.441Y-64.35
X249.75Y-102.48
X252.102Y-91.685
X252.181Y-11.935
X254.553Y-53.555
X261.659Y-126.29
X264.04Y-83.43
X266.491Y-45.3
X271.254Y-64.35
X275.978Y-91.685
X275.996Y-11.94
X278.429Y-53.555
X280.709Y-107.24
X280.709Y-126.29
X299.759Y-126.29
X299.764Y-45.325
X299.764Y-64.375
X299.764Y-83.425
X299.811Y-11.935
M30
